<?xml version="1.0" encoding="UTF-8" standalone="no"?>
<!-- Created with Inkscape (http://www.inkscape.org/) -->

<svg
   xmlns:dc="http://purl.org/dc/elements/1.1/"
   xmlns:cc="http://creativecommons.org/ns#"
   xmlns:rdf="http://www.w3.org/1999/02/22-rdf-syntax-ns#"
   xmlns:svg="http://www.w3.org/2000/svg"
   xmlns="http://www.w3.org/2000/svg"
   xmlns:sodipodi="http://sodipodi.sourceforge.net/DTD/sodipodi-0.dtd"
   xmlns:inkscape="http://www.inkscape.org/namespaces/inkscape"
   width="1000"
   height="1000"
   id="svg2"
   version="1.1"
   inkscape:version="0.48.3.1 r9886"
   sodipodi:docname="network-4.svg">
  <defs
     id="defs4" />
  <sodipodi:namedview
     id="base"
     pagecolor="#ffffff"
     bordercolor="#666666"
     borderopacity="1.0"
     inkscape:pageopacity="0.0"
     inkscape:pageshadow="2"
     inkscape:zoom="0.49497475"
     inkscape:cx="373.69037"
     inkscape:cy="347.98777"
     inkscape:document-units="px"
     inkscape:current-layer="layer1"
     showgrid="false"
     inkscape:window-width="1855"
     inkscape:window-height="1056"
     inkscape:window-x="65"
     inkscape:window-y="24"
     inkscape:window-maximized="1" />
  <metadata
     id="metadata7">
    <rdf:RDF>
      <cc:Work
         rdf:about="">
        <dc:format>image/svg+xml</dc:format>
        <dc:type
           rdf:resource="http://purl.org/dc/dcmitype/StillImage" />
        <dc:title />
      </cc:Work>
    </rdf:RDF>
  </metadata>
  <g
     inkscape:label="Layer 1"
     inkscape:groupmode="layer"
     id="layer1"
     transform="translate(0,-52.362183)">
    <rect
       style="fill:#d7eef4;fill-opacity:1;stroke:#000000;stroke-width:0;stroke-miterlimit:4;stroke-opacity:1;stroke-dasharray:none"
       id="rect3149"
       width="1000"
       height="1000"
       x="0"
       y="52.362183" />
    <path
       transform="matrix(0.77372584,0,0,0.77372584,-6.2776194,936.54339)"
       sodipodi:type="arc"
       style="fill:#000000;stroke-width:2.0999999;stroke-miterlimit:4;stroke-dasharray:none"
       id="path2985-0"
       sodipodi:cx="76.428574"
       sodipodi:cy="72.14286"
       sodipodi:rx="17.857143"
       sodipodi:ry="17.857143"
       d="m 94.285717,72.14286 c 0,9.862228 -7.994915,17.857144 -17.857143,17.857144 -9.862228,0 -17.857144,-7.994916 -17.857144,-17.857144 0,-9.862228 7.994916,-17.857143 17.857144,-17.857143 9.862228,0 17.857143,7.994915 17.857143,17.857143 z" />
    <path
       transform="matrix(0.84,0,0,0.84,880.08571,937.47647)"
       sodipodi:type="arc"
       style="fill:#000000;stroke-width:2.0999999;stroke-miterlimit:4;stroke-dasharray:none"
       id="path2985-3"
       sodipodi:cx="76.428574"
       sodipodi:cy="72.14286"
       sodipodi:rx="17.857143"
       sodipodi:ry="17.857143"
       d="m 94.285717,72.14286 c 0,9.862228 -7.994915,17.857144 -17.857143,17.857144 -9.862228,0 -17.857144,-7.994916 -17.857144,-17.857144 0,-9.862228 7.994916,-17.857143 17.857144,-17.857143 9.862228,0 17.857143,7.994915 17.857143,17.857143 z" />
    <path
       transform="translate(879.28571,18.790751)"
       sodipodi:type="arc"
       style="fill:#000000;stroke-width:2.0999999;stroke-miterlimit:4;stroke-dasharray:none"
       id="path2985-8"
       sodipodi:cx="76.428574"
       sodipodi:cy="72.14286"
       sodipodi:rx="17.857143"
       sodipodi:ry="17.857143"
       d="m 94.285717,72.14286 c 0,9.862228 -7.994915,17.857144 -17.857143,17.857144 -9.862228,0 -17.857144,-7.994916 -17.857144,-17.857144 0,-9.862228 7.994916,-17.857143 17.857144,-17.857143 9.862228,0 17.857143,7.994915 17.857143,17.857143 z" />
    <path
       transform="matrix(0.52000001,0,0,0.52000001,118.82857,500.56218)"
       sodipodi:type="arc"
       style="fill:#000000;stroke-width:2.0999999;stroke-miterlimit:4;stroke-dasharray:none"
       id="path2985-9"
       sodipodi:cx="76.428574"
       sodipodi:cy="72.14286"
       sodipodi:rx="17.857143"
       sodipodi:ry="17.857143"
       d="m 94.285717,72.14286 c 0,9.862228 -7.994915,17.857144 -17.857143,17.857144 -9.862228,0 -17.857144,-7.994916 -17.857144,-17.857144 0,-9.862228 7.994916,-17.857143 17.857144,-17.857143 9.862228,0 17.857143,7.994915 17.857143,17.857143 z" />
    <path
       transform="matrix(0.52000001,0,0,0.52000001,365.97143,310.56218)"
       sodipodi:type="arc"
       style="fill:#000000;stroke-width:2.0999999;stroke-miterlimit:4;stroke-dasharray:none"
       id="path2985-9-4"
       sodipodi:cx="76.428574"
       sodipodi:cy="72.14286"
       sodipodi:rx="17.857143"
       sodipodi:ry="17.857143"
       d="m 94.285717,72.14286 c 0,9.862228 -7.994915,17.857144 -17.857143,17.857144 -9.862228,0 -17.857144,-7.994916 -17.857144,-17.857144 0,-9.862228 7.994916,-17.857143 17.857144,-17.857143 9.862228,0 17.857143,7.994915 17.857143,17.857143 z" />
    <path
       transform="matrix(0.52000001,0,0,0.52000001,633.11428,453.41932)"
       sodipodi:type="arc"
       style="fill:#000000;stroke-width:2.0999999;stroke-miterlimit:4;stroke-dasharray:none"
       id="path2985-9-9"
       sodipodi:cx="76.428574"
       sodipodi:cy="72.14286"
       sodipodi:rx="17.857143"
       sodipodi:ry="17.857143"
       d="m 94.285717,72.14286 c 0,9.862228 -7.994915,17.857144 -17.857143,17.857144 -9.862228,0 -17.857144,-7.994916 -17.857144,-17.857144 0,-9.862228 7.994916,-17.857143 17.857144,-17.857143 9.862228,0 17.857143,7.994915 17.857143,17.857143 z" />
    <path
       transform="matrix(0.52000001,0,0,0.52000001,757.4,616.27647)"
       sodipodi:type="arc"
       style="fill:#000000;stroke-width:2.0999999;stroke-miterlimit:4;stroke-dasharray:none"
       id="path2985-9-42"
       sodipodi:cx="76.428574"
       sodipodi:cy="72.14286"
       sodipodi:rx="17.857143"
       sodipodi:ry="17.857143"
       d="m 94.285717,72.14286 c 0,9.862228 -7.994915,17.857144 -17.857143,17.857144 -9.862228,0 -17.857144,-7.994916 -17.857144,-17.857144 0,-9.862228 7.994916,-17.857143 17.857144,-17.857143 9.862228,0 17.857143,7.994915 17.857143,17.857143 z" />
    <path
       transform="matrix(0.52000001,0,0,0.52000001,393.11428,697.70504)"
       sodipodi:type="arc"
       style="fill:#000000;stroke-width:2.0999999;stroke-miterlimit:4;stroke-dasharray:none"
       id="path2985-9-0"
       sodipodi:cx="76.428574"
       sodipodi:cy="72.14286"
       sodipodi:rx="17.857143"
       sodipodi:ry="17.857143"
       d="m 94.285717,72.14286 c 0,9.862228 -7.994915,17.857144 -17.857143,17.857144 -9.862228,0 -17.857144,-7.994916 -17.857144,-17.857144 0,-9.862228 7.994916,-17.857143 17.857144,-17.857143 9.862228,0 17.857143,7.994915 17.857143,17.857143 z" />
    <path
       transform="matrix(0.52000001,0,0,0.52000001,504.54286,329.13361)"
       sodipodi:type="arc"
       style="fill:#000000;stroke-width:2.0999999;stroke-miterlimit:4;stroke-dasharray:none"
       id="path2985-9-1"
       sodipodi:cx="76.428574"
       sodipodi:cy="72.14286"
       sodipodi:rx="17.857143"
       sodipodi:ry="17.857143"
       d="m 94.285717,72.14286 c 0,9.862228 -7.994915,17.857144 -17.857143,17.857144 -9.862228,0 -17.857144,-7.994916 -17.857144,-17.857144 0,-9.862228 7.994916,-17.857143 17.857144,-17.857143 9.862228,0 17.857143,7.994915 17.857143,17.857143 z" />
    <path
       transform="matrix(0.52000001,0,0,0.52000001,594.54286,194.84789)"
       sodipodi:type="arc"
       style="fill:#000000;stroke-width:2.0999999;stroke-miterlimit:4;stroke-dasharray:none"
       id="path2985-9-97"
       sodipodi:cx="76.428574"
       sodipodi:cy="72.14286"
       sodipodi:rx="17.857143"
       sodipodi:ry="17.857143"
       d="m 94.285717,72.14286 c 0,9.862228 -7.994915,17.857144 -17.857143,17.857144 -9.862228,0 -17.857144,-7.994916 -17.857144,-17.857144 0,-9.862228 7.994916,-17.857143 17.857144,-17.857143 9.862228,0 17.857143,7.994915 17.857143,17.857143 z" />
    <path
       transform="matrix(0.52000001,0,0,0.52000001,930.25714,461.99075)"
       sodipodi:type="arc"
       style="fill:#000000;stroke-width:2.0999999;stroke-miterlimit:4;stroke-dasharray:none"
       id="path2985-9-02"
       sodipodi:cx="76.428574"
       sodipodi:cy="72.14286"
       sodipodi:rx="17.857143"
       sodipodi:ry="17.857143"
       d="m 94.285717,72.14286 c 0,9.862228 -7.994915,17.857144 -17.857143,17.857144 -9.862228,0 -17.857144,-7.994916 -17.857144,-17.857144 0,-9.862228 7.994916,-17.857143 17.857144,-17.857143 9.862228,0 17.857143,7.994915 17.857143,17.857143 z" />
    <path
       transform="matrix(0.52000001,0,0,0.52000001,321.68571,139.13361)"
       sodipodi:type="arc"
       style="fill:#000000;stroke-width:2.0999999;stroke-miterlimit:4;stroke-dasharray:none"
       id="path2985-9-46"
       sodipodi:cx="76.428574"
       sodipodi:cy="72.14286"
       sodipodi:rx="17.857143"
       sodipodi:ry="17.857143"
       d="m 94.285717,72.14286 c 0,9.862228 -7.994915,17.857144 -17.857143,17.857144 -9.862228,0 -17.857144,-7.994916 -17.857144,-17.857144 0,-9.862228 7.994916,-17.857143 17.857144,-17.857143 9.862228,0 17.857143,7.994915 17.857143,17.857143 z" />
    <path
       transform="matrix(0.52000001,0,0,0.52000001,65.971427,279.13361)"
       sodipodi:type="arc"
       style="fill:#000000;stroke-width:2.0999999;stroke-miterlimit:4;stroke-dasharray:none"
       id="path2985-9-99"
       sodipodi:cx="76.428574"
       sodipodi:cy="72.14286"
       sodipodi:rx="17.857143"
       sodipodi:ry="17.857143"
       d="m 94.285717,72.14286 c 0,9.862228 -7.994915,17.857144 -17.857143,17.857144 -9.862228,0 -17.857144,-7.994916 -17.857144,-17.857144 0,-9.862228 7.994916,-17.857143 17.857144,-17.857143 9.862228,0 17.857143,7.994915 17.857143,17.857143 z" />
    <path
       transform="matrix(0.52000001,0,0,0.52000001,103.11428,547.70504)"
       sodipodi:type="arc"
       style="fill:#000000;stroke-width:2.0999999;stroke-miterlimit:4;stroke-dasharray:none"
       id="path2985-9-6"
       sodipodi:cx="76.428574"
       sodipodi:cy="72.14286"
       sodipodi:rx="17.857143"
       sodipodi:ry="17.857143"
       d="m 94.285717,72.14286 c 0,9.862228 -7.994915,17.857144 -17.857143,17.857144 -9.862228,0 -17.857144,-7.994916 -17.857144,-17.857144 0,-9.862228 7.994916,-17.857143 17.857144,-17.857143 9.862228,0 17.857143,7.994915 17.857143,17.857143 z" />
    <path
       transform="matrix(0.52000001,0,0,0.52000001,174.54286,849.13361)"
       sodipodi:type="arc"
       style="fill:#000000;stroke-width:2.0999999;stroke-miterlimit:4;stroke-dasharray:none"
       id="path2985-9-2"
       sodipodi:cx="76.428574"
       sodipodi:cy="72.14286"
       sodipodi:rx="17.857143"
       sodipodi:ry="17.857143"
       d="m 94.285717,72.14286 c 0,9.862228 -7.994915,17.857144 -17.857143,17.857144 -9.862228,0 -17.857144,-7.994916 -17.857144,-17.857144 0,-9.862228 7.994916,-17.857143 17.857144,-17.857143 9.862228,0 17.857143,7.994915 17.857143,17.857143 z" />
    <path
       transform="matrix(0.52000001,0,0,0.52000001,593.11428,943.41932)"
       sodipodi:type="arc"
       style="fill:#000000;stroke-width:2.0999999;stroke-miterlimit:4;stroke-dasharray:none"
       id="path2985-9-3"
       sodipodi:cx="76.428574"
       sodipodi:cy="72.14286"
       sodipodi:rx="17.857143"
       sodipodi:ry="17.857143"
       d="m 94.285717,72.14286 c 0,9.862228 -7.994915,17.857144 -17.857143,17.857144 -9.862228,0 -17.857144,-7.994916 -17.857144,-17.857144 0,-9.862228 7.994916,-17.857143 17.857144,-17.857143 9.862228,0 17.857143,7.994915 17.857143,17.857143 z" />
    <path
       transform="matrix(0.52000001,0,0,0.52000001,677.4,843.41932)"
       sodipodi:type="arc"
       style="fill:#000000;stroke-width:2.0999999;stroke-miterlimit:4;stroke-dasharray:none"
       id="path2985-9-7"
       sodipodi:cx="76.428574"
       sodipodi:cy="72.14286"
       sodipodi:rx="17.857143"
       sodipodi:ry="17.857143"
       d="m 94.285717,72.14286 c 0,9.862228 -7.994915,17.857144 -17.857143,17.857144 -9.862228,0 -17.857144,-7.994916 -17.857144,-17.857144 0,-9.862228 7.994916,-17.857143 17.857144,-17.857143 9.862228,0 17.857143,7.994915 17.857143,17.857143 z" />
    <path
       transform="matrix(0.52000001,0,0,0.52000001,494.54286,546.27647)"
       sodipodi:type="arc"
       style="fill:#000000;stroke-width:2.0999999;stroke-miterlimit:4;stroke-dasharray:none"
       id="path2985-9-01"
       sodipodi:cx="76.428574"
       sodipodi:cy="72.14286"
       sodipodi:rx="17.857143"
       sodipodi:ry="17.857143"
       d="m 94.285717,72.14286 c 0,9.862228 -7.994915,17.857144 -17.857143,17.857144 -9.862228,0 -17.857144,-7.994916 -17.857144,-17.857144 0,-9.862228 7.994916,-17.857143 17.857144,-17.857143 9.862228,0 17.857143,7.994915 17.857143,17.857143 z" />
    <path
       transform="matrix(0.52000001,0,0,0.52000001,301.68571,421.99075)"
       sodipodi:type="arc"
       style="fill:#000000;stroke-width:2.0999999;stroke-miterlimit:4;stroke-dasharray:none"
       id="path2985-9-61"
       sodipodi:cx="76.428574"
       sodipodi:cy="72.14286"
       sodipodi:rx="17.857143"
       sodipodi:ry="17.857143"
       d="m 94.285717,72.14286 c 0,9.862228 -7.994915,17.857144 -17.857143,17.857144 -9.862228,0 -17.857144,-7.994916 -17.857144,-17.857144 0,-9.862228 7.994916,-17.857143 17.857144,-17.857143 9.862228,0 17.857143,7.994915 17.857143,17.857143 z" />
    <path
       transform="matrix(0.52000001,0,0,0.52000001,218.82857,204.84789)"
       sodipodi:type="arc"
       style="fill:#000000;stroke-width:2.0999999;stroke-miterlimit:4;stroke-dasharray:none"
       id="path2985-9-8"
       sodipodi:cx="76.428574"
       sodipodi:cy="72.14286"
       sodipodi:rx="17.857143"
       sodipodi:ry="17.857143"
       d="m 94.285717,72.14286 c 0,9.862228 -7.994915,17.857144 -17.857143,17.857144 -9.862228,0 -17.857144,-7.994916 -17.857144,-17.857144 0,-9.862228 7.994916,-17.857143 17.857144,-17.857143 9.862228,0 17.857143,7.994915 17.857143,17.857143 z" />
    <path
       transform="matrix(0.52000001,0,0,0.52000001,377.4,176.27647)"
       sodipodi:type="arc"
       style="fill:#000000;stroke-width:2.0999999;stroke-miterlimit:4;stroke-dasharray:none"
       id="path2985-9-47"
       sodipodi:cx="76.428574"
       sodipodi:cy="72.14286"
       sodipodi:rx="17.857143"
       sodipodi:ry="17.857143"
       d="m 94.285717,72.14286 c 0,9.862228 -7.994915,17.857144 -17.857143,17.857144 -9.862228,0 -17.857144,-7.994916 -17.857144,-17.857144 0,-9.862228 7.994916,-17.857143 17.857144,-17.857143 9.862228,0 17.857143,7.994915 17.857143,17.857143 z" />
    <path
       transform="matrix(0.52000001,0,0,0.52000001,487.4,90.56218)"
       sodipodi:type="arc"
       style="fill:#000000;stroke-width:2.0999999;stroke-miterlimit:4;stroke-dasharray:none"
       id="path2985-9-69"
       sodipodi:cx="76.428574"
       sodipodi:cy="72.14286"
       sodipodi:rx="17.857143"
       sodipodi:ry="17.857143"
       d="m 94.285717,72.14286 c 0,9.862228 -7.994915,17.857144 -17.857143,17.857144 -9.862228,0 -17.857144,-7.994916 -17.857144,-17.857144 0,-9.862228 7.994916,-17.857143 17.857144,-17.857143 9.862228,0 17.857143,7.994915 17.857143,17.857143 z" />
    <path
       transform="matrix(0.52000001,0,0,0.52000001,634.54286,287.70504)"
       sodipodi:type="arc"
       style="fill:#000000;stroke-width:2.0999999;stroke-miterlimit:4;stroke-dasharray:none"
       id="path2985-9-77"
       sodipodi:cx="76.428574"
       sodipodi:cy="72.14286"
       sodipodi:rx="17.857143"
       sodipodi:ry="17.857143"
       d="m 94.285717,72.14286 c 0,9.862228 -7.994915,17.857144 -17.857143,17.857144 -9.862228,0 -17.857144,-7.994916 -17.857144,-17.857144 0,-9.862228 7.994916,-17.857143 17.857144,-17.857143 9.862228,0 17.857143,7.994915 17.857143,17.857143 z" />
    <path
       transform="matrix(0.52000001,0,0,0.52000001,807.4,330.56218)"
       sodipodi:type="arc"
       style="fill:#000000;stroke-width:2.0999999;stroke-miterlimit:4;stroke-dasharray:none"
       id="path2985-9-15"
       sodipodi:cx="76.428574"
       sodipodi:cy="72.14286"
       sodipodi:rx="17.857143"
       sodipodi:ry="17.857143"
       d="m 94.285717,72.14286 c 0,9.862228 -7.994915,17.857144 -17.857143,17.857144 -9.862228,0 -17.857144,-7.994916 -17.857144,-17.857144 0,-9.862228 7.994916,-17.857143 17.857144,-17.857143 9.862228,0 17.857143,7.994915 17.857143,17.857143 z" />
    <path
       transform="matrix(0.52000001,0,0,0.52000001,818.82857,516.27647)"
       sodipodi:type="arc"
       style="fill:#000000;stroke-width:2.0999999;stroke-miterlimit:4;stroke-dasharray:none"
       id="path2985-9-24"
       sodipodi:cx="76.428574"
       sodipodi:cy="72.14286"
       sodipodi:rx="17.857143"
       sodipodi:ry="17.857143"
       d="m 94.285717,72.14286 c 0,9.862228 -7.994915,17.857144 -17.857143,17.857144 -9.862228,0 -17.857144,-7.994916 -17.857144,-17.857144 0,-9.862228 7.994916,-17.857143 17.857144,-17.857143 9.862228,0 17.857143,7.994915 17.857143,17.857143 z" />
    <path
       transform="matrix(0.52000001,0,0,0.52000001,894.54286,740.56218)"
       sodipodi:type="arc"
       style="fill:#000000;stroke-width:2.0999999;stroke-miterlimit:4;stroke-dasharray:none"
       id="path2985-9-19"
       sodipodi:cx="76.428574"
       sodipodi:cy="72.14286"
       sodipodi:rx="17.857143"
       sodipodi:ry="17.857143"
       d="m 94.285717,72.14286 c 0,9.862228 -7.994915,17.857144 -17.857143,17.857144 -9.862228,0 -17.857144,-7.994916 -17.857144,-17.857144 0,-9.862228 7.994916,-17.857143 17.857144,-17.857143 9.862228,0 17.857143,7.994915 17.857143,17.857143 z" />
    <path
       transform="matrix(0.52000001,0,0,0.52000001,507.4,760.56218)"
       sodipodi:type="arc"
       style="fill:#000000;stroke-width:2.0999999;stroke-miterlimit:4;stroke-dasharray:none"
       id="path2985-9-72"
       sodipodi:cx="76.428574"
       sodipodi:cy="72.14286"
       sodipodi:rx="17.857143"
       sodipodi:ry="17.857143"
       d="m 94.285717,72.14286 c 0,9.862228 -7.994915,17.857144 -17.857143,17.857144 -9.862228,0 -17.857144,-7.994916 -17.857144,-17.857144 0,-9.862228 7.994916,-17.857143 17.857144,-17.857143 9.862228,0 17.857143,7.994915 17.857143,17.857143 z" />
    <path
       transform="matrix(0.52000001,0,0,0.52000001,490.25714,631.99075)"
       sodipodi:type="arc"
       style="fill:#000000;stroke-width:2.0999999;stroke-miterlimit:4;stroke-dasharray:none"
       id="path2985-9-475"
       sodipodi:cx="76.428574"
       sodipodi:cy="72.14286"
       sodipodi:rx="17.857143"
       sodipodi:ry="17.857143"
       d="m 94.285717,72.14286 c 0,9.862228 -7.994915,17.857144 -17.857143,17.857144 -9.862228,0 -17.857144,-7.994916 -17.857144,-17.857144 0,-9.862228 7.994916,-17.857143 17.857144,-17.857143 9.862228,0 17.857143,7.994915 17.857143,17.857143 z" />
    <path
       transform="matrix(0.52000001,0,0,0.52000001,213.11428,514.84789)"
       sodipodi:type="arc"
       style="fill:#000000;stroke-width:2.0999999;stroke-miterlimit:4;stroke-dasharray:none"
       id="path2985-9-32"
       sodipodi:cx="76.428574"
       sodipodi:cy="72.14286"
       sodipodi:rx="17.857143"
       sodipodi:ry="17.857143"
       d="m 94.285717,72.14286 c 0,9.862228 -7.994915,17.857144 -17.857143,17.857144 -9.862228,0 -17.857144,-7.994916 -17.857144,-17.857144 0,-9.862228 7.994916,-17.857143 17.857144,-17.857143 9.862228,0 17.857143,7.994915 17.857143,17.857143 z" />
    <path
       transform="matrix(0.52000001,0,0,0.52000001,293.11428,516.27647)"
       sodipodi:type="arc"
       style="fill:#000000;stroke-width:2.0999999;stroke-miterlimit:4;stroke-dasharray:none"
       id="path2985-9-90"
       sodipodi:cx="76.428574"
       sodipodi:cy="72.14286"
       sodipodi:rx="17.857143"
       sodipodi:ry="17.857143"
       d="m 94.285717,72.14286 c 0,9.862228 -7.994915,17.857144 -17.857143,17.857144 -9.862228,0 -17.857144,-7.994916 -17.857144,-17.857144 0,-9.862228 7.994916,-17.857143 17.857144,-17.857143 9.862228,0 17.857143,7.994915 17.857143,17.857143 z" />
    <path
       transform="matrix(0.52000001,0,0,0.52000001,253.11428,731.99075)"
       sodipodi:type="arc"
       style="fill:#000000;stroke-width:2.0999999;stroke-miterlimit:4;stroke-dasharray:none"
       id="path2985-9-5"
       sodipodi:cx="76.428574"
       sodipodi:cy="72.14286"
       sodipodi:rx="17.857143"
       sodipodi:ry="17.857143"
       d="m 94.285717,72.14286 c 0,9.862228 -7.994915,17.857144 -17.857143,17.857144 -9.862228,0 -17.857144,-7.994916 -17.857144,-17.857144 0,-9.862228 7.994916,-17.857143 17.857144,-17.857143 9.862228,0 17.857143,7.994915 17.857143,17.857143 z" />
    <path
       transform="matrix(0.52000001,0,0,0.52000001,451.68571,941.99075)"
       sodipodi:type="arc"
       style="fill:#000000;stroke-width:2.0999999;stroke-miterlimit:4;stroke-dasharray:none"
       id="path2985-9-52"
       sodipodi:cx="76.428574"
       sodipodi:cy="72.14286"
       sodipodi:rx="17.857143"
       sodipodi:ry="17.857143"
       d="m 94.285717,72.14286 c 0,9.862228 -7.994915,17.857144 -17.857143,17.857144 -9.862228,0 -17.857144,-7.994916 -17.857144,-17.857144 0,-9.862228 7.994916,-17.857143 17.857144,-17.857143 9.862228,0 17.857143,7.994915 17.857143,17.857143 z" />
    <path
       transform="matrix(0.52000001,0,0,0.52000001,465.97143,849.13361)"
       sodipodi:type="arc"
       style="fill:#000000;stroke-width:2.0999999;stroke-miterlimit:4;stroke-dasharray:none"
       id="path2985-9-49"
       sodipodi:cx="76.428574"
       sodipodi:cy="72.14286"
       sodipodi:rx="17.857143"
       sodipodi:ry="17.857143"
       d="m 94.285717,72.14286 c 0,9.862228 -7.994915,17.857144 -17.857143,17.857144 -9.862228,0 -17.857144,-7.994916 -17.857144,-17.857144 0,-9.862228 7.994916,-17.857143 17.857144,-17.857143 9.862228,0 17.857143,7.994915 17.857143,17.857143 z" />
    <path
       transform="matrix(0.52000001,0,0,0.52000001,318.82857,844.84789)"
       sodipodi:type="arc"
       style="fill:#000000;stroke-width:2.0999999;stroke-miterlimit:4;stroke-dasharray:none"
       id="path2985-9-62"
       sodipodi:cx="76.428574"
       sodipodi:cy="72.14286"
       sodipodi:rx="17.857143"
       sodipodi:ry="17.857143"
       d="m 94.285717,72.14286 c 0,9.862228 -7.994915,17.857144 -17.857143,17.857144 -9.862228,0 -17.857144,-7.994916 -17.857144,-17.857144 0,-9.862228 7.994916,-17.857143 17.857144,-17.857143 9.862228,0 17.857143,7.994915 17.857143,17.857143 z" />
    <path
       transform="matrix(0.52000001,0,0,0.52000001,248.82857,939.13361)"
       sodipodi:type="arc"
       style="fill:#000000;stroke-width:2.0999999;stroke-miterlimit:4;stroke-dasharray:none"
       id="path2985-9-45"
       sodipodi:cx="76.428574"
       sodipodi:cy="72.14286"
       sodipodi:rx="17.857143"
       sodipodi:ry="17.857143"
       d="m 94.285717,72.14286 c 0,9.862228 -7.994915,17.857144 -17.857143,17.857144 -9.862228,0 -17.857144,-7.994916 -17.857144,-17.857144 0,-9.862228 7.994916,-17.857143 17.857144,-17.857143 9.862228,0 17.857143,7.994915 17.857143,17.857143 z" />
    <path
       transform="matrix(0.52000001,0,0,0.52000001,-14.028573,670.56218)"
       sodipodi:type="arc"
       style="fill:#000000;stroke-width:2.0999999;stroke-miterlimit:4;stroke-dasharray:none"
       id="path2985-9-78"
       sodipodi:cx="76.428574"
       sodipodi:cy="72.14286"
       sodipodi:rx="17.857143"
       sodipodi:ry="17.857143"
       d="m 94.285717,72.14286 c 0,9.862228 -7.994915,17.857144 -17.857143,17.857144 -9.862228,0 -17.857144,-7.994916 -17.857144,-17.857144 0,-9.862228 7.994916,-17.857143 17.857144,-17.857143 9.862228,0 17.857143,7.994915 17.857143,17.857143 z" />
    <path
       transform="matrix(0.52000001,0,0,0.52000001,1.6857121,469.13361)"
       sodipodi:type="arc"
       style="fill:#000000;stroke-width:2.0999999;stroke-miterlimit:4;stroke-dasharray:none"
       id="path2985-9-25"
       sodipodi:cx="76.428574"
       sodipodi:cy="72.14286"
       sodipodi:rx="17.857143"
       sodipodi:ry="17.857143"
       d="m 94.285717,72.14286 c 0,9.862228 -7.994915,17.857144 -17.857143,17.857144 -9.862228,0 -17.857144,-7.994916 -17.857144,-17.857144 0,-9.862228 7.994916,-17.857143 17.857144,-17.857143 9.862228,0 17.857143,7.994915 17.857143,17.857143 z" />
    <path
       transform="matrix(0.52000001,0,0,0.52000001,14.542855,330.56218)"
       sodipodi:type="arc"
       style="fill:#000000;stroke-width:2.0999999;stroke-miterlimit:4;stroke-dasharray:none"
       id="path2985-9-79"
       sodipodi:cx="76.428574"
       sodipodi:cy="72.14286"
       sodipodi:rx="17.857143"
       sodipodi:ry="17.857143"
       d="m 94.285717,72.14286 c 0,9.862228 -7.994915,17.857144 -17.857143,17.857144 -9.862228,0 -17.857144,-7.994916 -17.857144,-17.857144 0,-9.862228 7.994916,-17.857143 17.857144,-17.857143 9.862228,0 17.857143,7.994915 17.857143,17.857143 z" />
    <path
       transform="matrix(0.52000001,0,0,0.52000001,13.114284,196.27647)"
       sodipodi:type="arc"
       style="fill:#000000;stroke-width:2.0999999;stroke-miterlimit:4;stroke-dasharray:none"
       id="path2985-9-37"
       sodipodi:cx="76.428574"
       sodipodi:cy="72.14286"
       sodipodi:rx="17.857143"
       sodipodi:ry="17.857143"
       d="m 94.285717,72.14286 c 0,9.862228 -7.994915,17.857144 -17.857143,17.857144 -9.862228,0 -17.857144,-7.994916 -17.857144,-17.857144 0,-9.862228 7.994916,-17.857143 17.857144,-17.857143 9.862228,0 17.857143,7.994915 17.857143,17.857143 z" />
    <path
       transform="matrix(0.52000001,0,0,0.52000001,138.82857,111.99075)"
       sodipodi:type="arc"
       style="fill:#000000;stroke-width:2.0999999;stroke-miterlimit:4;stroke-dasharray:none"
       id="path2985-9-57"
       sodipodi:cx="76.428574"
       sodipodi:cy="72.14286"
       sodipodi:rx="17.857143"
       sodipodi:ry="17.857143"
       d="m 94.285717,72.14286 c 0,9.862228 -7.994915,17.857144 -17.857143,17.857144 -9.862228,0 -17.857144,-7.994916 -17.857144,-17.857144 0,-9.862228 7.994916,-17.857143 17.857144,-17.857143 9.862228,0 17.857143,7.994915 17.857143,17.857143 z" />
    <path
       transform="matrix(0.52000001,0,0,0.52000001,204.54286,99.133609)"
       sodipodi:type="arc"
       style="fill:#000000;stroke-width:2.0999999;stroke-miterlimit:4;stroke-dasharray:none"
       id="path2985-9-722"
       sodipodi:cx="76.428574"
       sodipodi:cy="72.14286"
       sodipodi:rx="17.857143"
       sodipodi:ry="17.857143"
       d="m 94.285717,72.14286 c 0,9.862228 -7.994915,17.857144 -17.857143,17.857144 -9.862228,0 -17.857144,-7.994916 -17.857144,-17.857144 0,-9.862228 7.994916,-17.857143 17.857144,-17.857143 9.862228,0 17.857143,7.994915 17.857143,17.857143 z" />
    <path
       transform="matrix(0.52000001,0,0,0.52000001,184.54286,316.27647)"
       sodipodi:type="arc"
       style="fill:#000000;stroke-width:2.0999999;stroke-miterlimit:4;stroke-dasharray:none"
       id="path2985-9-84"
       sodipodi:cx="76.428574"
       sodipodi:cy="72.14286"
       sodipodi:rx="17.857143"
       sodipodi:ry="17.857143"
       d="m 94.285717,72.14286 c 0,9.862228 -7.994915,17.857144 -17.857143,17.857144 -9.862228,0 -17.857144,-7.994916 -17.857144,-17.857144 0,-9.862228 7.994916,-17.857143 17.857144,-17.857143 9.862228,0 17.857143,7.994915 17.857143,17.857143 z" />
    <path
       transform="matrix(0.52000001,0,0,0.52000001,251.68571,444.84789)"
       sodipodi:type="arc"
       style="fill:#000000;stroke-width:2.0999999;stroke-miterlimit:4;stroke-dasharray:none"
       id="path2985-9-452"
       sodipodi:cx="76.428574"
       sodipodi:cy="72.14286"
       sodipodi:rx="17.857143"
       sodipodi:ry="17.857143"
       d="m 94.285717,72.14286 c 0,9.862228 -7.994915,17.857144 -17.857143,17.857144 -9.862228,0 -17.857144,-7.994916 -17.857144,-17.857144 0,-9.862228 7.994916,-17.857143 17.857144,-17.857143 9.862228,0 17.857143,7.994915 17.857143,17.857143 z" />
    <path
       transform="matrix(0.52000001,0,0,0.52000001,454.54286,431.99075)"
       sodipodi:type="arc"
       style="fill:#000000;stroke-width:2.0999999;stroke-miterlimit:4;stroke-dasharray:none"
       id="path2985-9-05"
       sodipodi:cx="76.428574"
       sodipodi:cy="72.14286"
       sodipodi:rx="17.857143"
       sodipodi:ry="17.857143"
       d="m 94.285717,72.14286 c 0,9.862228 -7.994915,17.857144 -17.857143,17.857144 -9.862228,0 -17.857144,-7.994916 -17.857144,-17.857144 0,-9.862228 7.994916,-17.857143 17.857144,-17.857143 9.862228,0 17.857143,7.994915 17.857143,17.857143 z" />
    <path
       transform="matrix(0.52000001,0,0,0.52000001,590.25714,537.70504)"
       sodipodi:type="arc"
       style="fill:#000000;stroke-width:2.0999999;stroke-miterlimit:4;stroke-dasharray:none"
       id="path2985-9-56"
       sodipodi:cx="76.428574"
       sodipodi:cy="72.14286"
       sodipodi:rx="17.857143"
       sodipodi:ry="17.857143"
       d="m 94.285717,72.14286 c 0,9.862228 -7.994915,17.857144 -17.857143,17.857144 -9.862228,0 -17.857144,-7.994916 -17.857144,-17.857144 0,-9.862228 7.994916,-17.857143 17.857144,-17.857143 9.862228,0 17.857143,7.994915 17.857143,17.857143 z" />
    <path
       transform="matrix(0.52000001,0,0,0.52000001,428.82857,569.13361)"
       sodipodi:type="arc"
       style="fill:#000000;stroke-width:2.0999999;stroke-miterlimit:4;stroke-dasharray:none"
       id="path2985-9-35"
       sodipodi:cx="76.428574"
       sodipodi:cy="72.14286"
       sodipodi:rx="17.857143"
       sodipodi:ry="17.857143"
       d="m 94.285717,72.14286 c 0,9.862228 -7.994915,17.857144 -17.857143,17.857144 -9.862228,0 -17.857144,-7.994916 -17.857144,-17.857144 0,-9.862228 7.994916,-17.857143 17.857144,-17.857143 9.862228,0 17.857143,7.994915 17.857143,17.857143 z" />
    <path
       transform="matrix(0.52000001,0,0,0.52000001,325.97143,633.41932)"
       sodipodi:type="arc"
       style="fill:#000000;stroke-width:2.0999999;stroke-miterlimit:4;stroke-dasharray:none"
       id="path2985-9-09"
       sodipodi:cx="76.428574"
       sodipodi:cy="72.14286"
       sodipodi:rx="17.857143"
       sodipodi:ry="17.857143"
       d="m 94.285717,72.14286 c 0,9.862228 -7.994915,17.857144 -17.857143,17.857144 -9.862228,0 -17.857144,-7.994916 -17.857144,-17.857144 0,-9.862228 7.994916,-17.857143 17.857144,-17.857143 9.862228,0 17.857143,7.994915 17.857143,17.857143 z" />
    <path
       transform="matrix(0.52000001,0,0,0.52000001,370.25714,491.99075)"
       sodipodi:type="arc"
       style="fill:#000000;stroke-width:2.0999999;stroke-miterlimit:4;stroke-dasharray:none"
       id="path2985-9-999"
       sodipodi:cx="76.428574"
       sodipodi:cy="72.14286"
       sodipodi:rx="17.857143"
       sodipodi:ry="17.857143"
       d="m 94.285717,72.14286 c 0,9.862228 -7.994915,17.857144 -17.857143,17.857144 -9.862228,0 -17.857144,-7.994916 -17.857144,-17.857144 0,-9.862228 7.994916,-17.857143 17.857144,-17.857143 9.862228,0 17.857143,7.994915 17.857143,17.857143 z" />
    <path
       transform="matrix(0.52000001,0,0,0.52000001,384.54286,381.99075)"
       sodipodi:type="arc"
       style="fill:#000000;stroke-width:2.0999999;stroke-miterlimit:4;stroke-dasharray:none"
       id="path2985-9-566"
       sodipodi:cx="76.428574"
       sodipodi:cy="72.14286"
       sodipodi:rx="17.857143"
       sodipodi:ry="17.857143"
       d="m 94.285717,72.14286 c 0,9.862228 -7.994915,17.857144 -17.857143,17.857144 -9.862228,0 -17.857144,-7.994916 -17.857144,-17.857144 0,-9.862228 7.994916,-17.857143 17.857144,-17.857143 9.862228,0 17.857143,7.994915 17.857143,17.857143 z" />
    <path
       transform="matrix(0.52000001,0,0,0.52000001,498.82857,416.27647)"
       sodipodi:type="arc"
       style="fill:#000000;stroke-width:2.0999999;stroke-miterlimit:4;stroke-dasharray:none"
       id="path2985-9-58"
       sodipodi:cx="76.428574"
       sodipodi:cy="72.14286"
       sodipodi:rx="17.857143"
       sodipodi:ry="17.857143"
       d="m 94.285717,72.14286 c 0,9.862228 -7.994915,17.857144 -17.857143,17.857144 -9.862228,0 -17.857144,-7.994916 -17.857144,-17.857144 0,-9.862228 7.994916,-17.857143 17.857144,-17.857143 9.862228,0 17.857143,7.994915 17.857143,17.857143 z" />
    <path
       transform="matrix(0.52000001,0,0,0.52000001,548.82857,494.84789)"
       sodipodi:type="arc"
       style="fill:#000000;stroke-width:2.0999999;stroke-miterlimit:4;stroke-dasharray:none"
       id="path2985-9-18"
       sodipodi:cx="76.428574"
       sodipodi:cy="72.14286"
       sodipodi:rx="17.857143"
       sodipodi:ry="17.857143"
       d="m 94.285717,72.14286 c 0,9.862228 -7.994915,17.857144 -17.857143,17.857144 -9.862228,0 -17.857144,-7.994916 -17.857144,-17.857144 0,-9.862228 7.994916,-17.857143 17.857144,-17.857143 9.862228,0 17.857143,7.994915 17.857143,17.857143 z" />
    <path
       transform="matrix(0.52000001,0,0,0.52000001,618.82857,711.99075)"
       sodipodi:type="arc"
       style="fill:#000000;stroke-width:2.0999999;stroke-miterlimit:4;stroke-dasharray:none"
       id="path2985-9-64"
       sodipodi:cx="76.428574"
       sodipodi:cy="72.14286"
       sodipodi:rx="17.857143"
       sodipodi:ry="17.857143"
       d="m 94.285717,72.14286 c 0,9.862228 -7.994915,17.857144 -17.857143,17.857144 -9.862228,0 -17.857144,-7.994916 -17.857144,-17.857144 0,-9.862228 7.994916,-17.857143 17.857144,-17.857143 9.862228,0 17.857143,7.994915 17.857143,17.857143 z" />
    <path
       transform="matrix(0.52000001,0,0,0.52000001,765.97143,807.70504)"
       sodipodi:type="arc"
       style="fill:#000000;stroke-width:2.0999999;stroke-miterlimit:4;stroke-dasharray:none"
       id="path2985-9-06"
       sodipodi:cx="76.428574"
       sodipodi:cy="72.14286"
       sodipodi:rx="17.857143"
       sodipodi:ry="17.857143"
       d="m 94.285717,72.14286 c 0,9.862228 -7.994915,17.857144 -17.857143,17.857144 -9.862228,0 -17.857144,-7.994916 -17.857144,-17.857144 0,-9.862228 7.994916,-17.857143 17.857144,-17.857143 9.862228,0 17.857143,7.994915 17.857143,17.857143 z" />
    <path
       transform="matrix(0.52000001,0,0,0.52000001,454.54286,319.13361)"
       sodipodi:type="arc"
       style="fill:#000000;stroke-width:2.0999999;stroke-miterlimit:4;stroke-dasharray:none"
       id="path2985-9-54"
       sodipodi:cx="76.428574"
       sodipodi:cy="72.14286"
       sodipodi:rx="17.857143"
       sodipodi:ry="17.857143"
       d="m 94.285717,72.14286 c 0,9.862228 -7.994915,17.857144 -17.857143,17.857144 -9.862228,0 -17.857144,-7.994916 -17.857144,-17.857144 0,-9.862228 7.994916,-17.857143 17.857144,-17.857143 9.862228,0 17.857143,7.994915 17.857143,17.857143 z" />
    <path
       transform="matrix(0.52000001,0,0,0.52000001,354.54286,556.27647)"
       sodipodi:type="arc"
       style="fill:#000000;stroke-width:2.0999999;stroke-miterlimit:4;stroke-dasharray:none"
       id="path2985-9-39"
       sodipodi:cx="76.428574"
       sodipodi:cy="72.14286"
       sodipodi:rx="17.857143"
       sodipodi:ry="17.857143"
       d="m 94.285717,72.14286 c 0,9.862228 -7.994915,17.857144 -17.857143,17.857144 -9.862228,0 -17.857144,-7.994916 -17.857144,-17.857144 0,-9.862228 7.994916,-17.857143 17.857144,-17.857143 9.862228,0 17.857143,7.994915 17.857143,17.857143 z" />
    <path
       transform="matrix(0.52000001,0,0,0.52000001,421.68571,643.41932)"
       sodipodi:type="arc"
       style="fill:#000000;stroke-width:2.0999999;stroke-miterlimit:4;stroke-dasharray:none"
       id="path2985-9-98"
       sodipodi:cx="76.428574"
       sodipodi:cy="72.14286"
       sodipodi:rx="17.857143"
       sodipodi:ry="17.857143"
       d="m 94.285717,72.14286 c 0,9.862228 -7.994915,17.857144 -17.857143,17.857144 -9.862228,0 -17.857144,-7.994916 -17.857144,-17.857144 0,-9.862228 7.994916,-17.857143 17.857144,-17.857143 9.862228,0 17.857143,7.994915 17.857143,17.857143 z" />
    <path
       transform="matrix(0.52000001,0,0,0.52000001,523.11428,697.70504)"
       sodipodi:type="arc"
       style="fill:#000000;stroke-width:2.0999999;stroke-miterlimit:4;stroke-dasharray:none"
       id="path2985-9-054"
       sodipodi:cx="76.428574"
       sodipodi:cy="72.14286"
       sodipodi:rx="17.857143"
       sodipodi:ry="17.857143"
       d="m 94.285717,72.14286 c 0,9.862228 -7.994915,17.857144 -17.857143,17.857144 -9.862228,0 -17.857144,-7.994916 -17.857144,-17.857144 0,-9.862228 7.994916,-17.857143 17.857144,-17.857143 9.862228,0 17.857143,7.994915 17.857143,17.857143 z" />
    <path
       transform="matrix(0.52000001,0,0,0.52000001,587.4,640.56218)"
       sodipodi:type="arc"
       style="fill:#000000;stroke-width:2.0999999;stroke-miterlimit:4;stroke-dasharray:none"
       id="path2985-9-63"
       sodipodi:cx="76.428574"
       sodipodi:cy="72.14286"
       sodipodi:rx="17.857143"
       sodipodi:ry="17.857143"
       d="m 94.285717,72.14286 c 0,9.862228 -7.994915,17.857144 -17.857143,17.857144 -9.862228,0 -17.857144,-7.994916 -17.857144,-17.857144 0,-9.862228 7.994916,-17.857143 17.857144,-17.857143 9.862228,0 17.857143,7.994915 17.857143,17.857143 z" />
    <path
       transform="matrix(0.52000001,0,0,0.52000001,680.25714,544.84789)"
       sodipodi:type="arc"
       style="fill:#000000;stroke-width:2.0999999;stroke-miterlimit:4;stroke-dasharray:none"
       id="path2985-9-31"
       sodipodi:cx="76.428574"
       sodipodi:cy="72.14286"
       sodipodi:rx="17.857143"
       sodipodi:ry="17.857143"
       d="m 94.285717,72.14286 c 0,9.862228 -7.994915,17.857144 -17.857143,17.857144 -9.862228,0 -17.857144,-7.994916 -17.857144,-17.857144 0,-9.862228 7.994916,-17.857143 17.857144,-17.857143 9.862228,0 17.857143,7.994915 17.857143,17.857143 z" />
    <path
       transform="matrix(0.52000001,0,0,0.52000001,597.4,411.99075)"
       sodipodi:type="arc"
       style="fill:#000000;stroke-width:2.0999999;stroke-miterlimit:4;stroke-dasharray:none"
       id="path2985-9-82"
       sodipodi:cx="76.428574"
       sodipodi:cy="72.14286"
       sodipodi:rx="17.857143"
       sodipodi:ry="17.857143"
       d="m 94.285717,72.14286 c 0,9.862228 -7.994915,17.857144 -17.857143,17.857144 -9.862228,0 -17.857144,-7.994916 -17.857144,-17.857144 0,-9.862228 7.994916,-17.857143 17.857144,-17.857143 9.862228,0 17.857143,7.994915 17.857143,17.857143 z" />
    <path
       transform="matrix(0.52000001,0,0,0.52000001,527.4,260.56218)"
       sodipodi:type="arc"
       style="fill:#000000;stroke-width:2.0999999;stroke-miterlimit:4;stroke-dasharray:none"
       id="path2985-9-00"
       sodipodi:cx="76.428574"
       sodipodi:cy="72.14286"
       sodipodi:rx="17.857143"
       sodipodi:ry="17.857143"
       d="m 94.285717,72.14286 c 0,9.862228 -7.994915,17.857144 -17.857143,17.857144 -9.862228,0 -17.857144,-7.994916 -17.857144,-17.857144 0,-9.862228 7.994916,-17.857143 17.857144,-17.857143 9.862228,0 17.857143,7.994915 17.857143,17.857143 z" />
    <path
       transform="matrix(0.52000001,0,0,0.52000001,460.25714,491.99075)"
       sodipodi:type="arc"
       style="fill:#000000;stroke-width:2.0999999;stroke-miterlimit:4;stroke-dasharray:none"
       id="path2985-9-87"
       sodipodi:cx="76.428574"
       sodipodi:cy="72.14286"
       sodipodi:rx="17.857143"
       sodipodi:ry="17.857143"
       d="m 94.285717,72.14286 c 0,9.862228 -7.994915,17.857144 -17.857143,17.857144 -9.862228,0 -17.857144,-7.994916 -17.857144,-17.857144 0,-9.862228 7.994916,-17.857143 17.857144,-17.857143 9.862228,0 17.857143,7.994915 17.857143,17.857143 z" />
    <path
       transform="matrix(0.52000001,0,0,0.52000001,375.97143,446.27647)"
       sodipodi:type="arc"
       style="fill:#000000;stroke-width:2.0999999;stroke-miterlimit:4;stroke-dasharray:none"
       id="path2985-9-83"
       sodipodi:cx="76.428574"
       sodipodi:cy="72.14286"
       sodipodi:rx="17.857143"
       sodipodi:ry="17.857143"
       d="m 94.285717,72.14286 c 0,9.862228 -7.994915,17.857144 -17.857143,17.857144 -9.862228,0 -17.857144,-7.994916 -17.857144,-17.857144 0,-9.862228 7.994916,-17.857143 17.857144,-17.857143 9.862228,0 17.857143,7.994915 17.857143,17.857143 z" />
    <path
       transform="matrix(0.76,0,0,0.76,886.2,177.53361)"
       sodipodi:type="arc"
       style="fill:#000000;stroke-width:2.0999999;stroke-miterlimit:4;stroke-dasharray:none"
       id="path2985-9-07"
       sodipodi:cx="76.428574"
       sodipodi:cy="72.14286"
       sodipodi:rx="17.857143"
       sodipodi:ry="17.857143"
       d="m 94.285717,72.14286 c 0,9.862228 -7.994915,17.857144 -17.857143,17.857144 -9.862228,0 -17.857144,-7.994916 -17.857144,-17.857144 0,-9.862228 7.994916,-17.857143 17.857144,-17.857143 9.862228,0 17.857143,7.994915 17.857143,17.857143 z" />
    <path
       transform="matrix(0.76,0,0,0.76,683.34286,36.105037)"
       sodipodi:type="arc"
       style="fill:#000000;stroke-width:2.0999999;stroke-miterlimit:4;stroke-dasharray:none"
       id="path2985-9-07-9"
       sodipodi:cx="76.428574"
       sodipodi:cy="72.14286"
       sodipodi:rx="17.857143"
       sodipodi:ry="17.857143"
       d="m 94.285717,72.14286 c 0,9.862228 -7.994915,17.857144 -17.857143,17.857144 -9.862228,0 -17.857144,-7.994916 -17.857144,-17.857144 0,-9.862228 7.994916,-17.857143 17.857144,-17.857143 9.862228,0 17.857143,7.994915 17.857143,17.857143 z" />
    <path
       transform="matrix(0.76,0,0,0.76,721.91428,208.96218)"
       sodipodi:type="arc"
       style="fill:#000000;stroke-width:2.0999999;stroke-miterlimit:4;stroke-dasharray:none"
       id="path2985-9-07-2"
       sodipodi:cx="76.428574"
       sodipodi:cy="72.14286"
       sodipodi:rx="17.857143"
       sodipodi:ry="17.857143"
       d="m 94.285717,72.14286 c 0,9.862228 -7.994915,17.857144 -17.857143,17.857144 -9.862228,0 -17.857144,-7.994916 -17.857144,-17.857144 0,-9.862228 7.994916,-17.857143 17.857144,-17.857143 9.862228,0 17.857143,7.994915 17.857143,17.857143 z" />
    <path
       transform="matrix(0.76,0,0,0.76,673.34286,348.96218)"
       sodipodi:type="arc"
       style="fill:#000000;stroke-width:2.0999999;stroke-miterlimit:4;stroke-dasharray:none"
       id="path2985-9-07-3"
       sodipodi:cx="76.428574"
       sodipodi:cy="72.14286"
       sodipodi:rx="17.857143"
       sodipodi:ry="17.857143"
       d="m 94.285717,72.14286 c 0,9.862228 -7.994915,17.857144 -17.857143,17.857144 -9.862228,0 -17.857144,-7.994916 -17.857144,-17.857144 0,-9.862228 7.994916,-17.857143 17.857144,-17.857143 9.862228,0 17.857143,7.994915 17.857143,17.857143 z" />
    <path
       transform="matrix(0.76,0,0,0.76,884.77143,586.10504)"
       sodipodi:type="arc"
       style="fill:#000000;stroke-width:2.0999999;stroke-miterlimit:4;stroke-dasharray:none"
       id="path2985-9-07-1"
       sodipodi:cx="76.428574"
       sodipodi:cy="72.14286"
       sodipodi:rx="17.857143"
       sodipodi:ry="17.857143"
       d="m 94.285717,72.14286 c 0,9.862228 -7.994915,17.857144 -17.857143,17.857144 -9.862228,0 -17.857144,-7.994916 -17.857144,-17.857144 0,-9.862228 7.994916,-17.857143 17.857144,-17.857143 9.862228,0 17.857143,7.994915 17.857143,17.857143 z" />
    <path
       transform="matrix(0.76,0,0,0.76,789.05714,741.81932)"
       sodipodi:type="arc"
       style="fill:#000000;stroke-width:2.0999999;stroke-miterlimit:4;stroke-dasharray:none"
       id="path2985-9-07-20"
       sodipodi:cx="76.428574"
       sodipodi:cy="72.14286"
       sodipodi:rx="17.857143"
       sodipodi:ry="17.857143"
       d="m 94.285717,72.14286 c 0,9.862228 -7.994915,17.857144 -17.857143,17.857144 -9.862228,0 -17.857144,-7.994916 -17.857144,-17.857144 0,-9.862228 7.994916,-17.857143 17.857144,-17.857143 9.862228,0 17.857143,7.994915 17.857143,17.857143 z" />
    <path
       transform="matrix(0.76,0,0,0.76,774.77143,910.39075)"
       sodipodi:type="arc"
       style="fill:#000000;stroke-width:2.0999999;stroke-miterlimit:4;stroke-dasharray:none"
       id="path2985-9-07-35"
       sodipodi:cx="76.428574"
       sodipodi:cy="72.14286"
       sodipodi:rx="17.857143"
       sodipodi:ry="17.857143"
       d="m 94.285717,72.14286 c 0,9.862228 -7.994915,17.857144 -17.857143,17.857144 -9.862228,0 -17.857144,-7.994916 -17.857144,-17.857144 0,-9.862228 7.994916,-17.857143 17.857144,-17.857143 9.862228,0 17.857143,7.994915 17.857143,17.857143 z" />
    <path
       transform="matrix(0.76,0,0,0.76,673.34286,890.39075)"
       sodipodi:type="arc"
       style="fill:#000000;stroke-width:2.0999999;stroke-miterlimit:4;stroke-dasharray:none"
       id="path2985-9-07-5"
       sodipodi:cx="76.428574"
       sodipodi:cy="72.14286"
       sodipodi:rx="17.857143"
       sodipodi:ry="17.857143"
       d="m 94.285717,72.14286 c 0,9.862228 -7.994915,17.857144 -17.857143,17.857144 -9.862228,0 -17.857144,-7.994916 -17.857144,-17.857144 0,-9.862228 7.994916,-17.857143 17.857144,-17.857143 9.862228,0 17.857143,7.994915 17.857143,17.857143 z" />
    <path
       transform="matrix(0.76,0,0,0.76,714.77143,717.53361)"
       sodipodi:type="arc"
       style="fill:#000000;stroke-width:2.0999999;stroke-miterlimit:4;stroke-dasharray:none"
       id="path2985-9-07-7"
       sodipodi:cx="76.428574"
       sodipodi:cy="72.14286"
       sodipodi:rx="17.857143"
       sodipodi:ry="17.857143"
       d="m 94.285717,72.14286 c 0,9.862228 -7.994915,17.857144 -17.857143,17.857144 -9.862228,0 -17.857144,-7.994916 -17.857144,-17.857144 0,-9.862228 7.994916,-17.857143 17.857144,-17.857143 9.862228,0 17.857143,7.994915 17.857143,17.857143 z" />
    <path
       transform="matrix(0.76,0,0,0.76,876.2,828.96218)"
       sodipodi:type="arc"
       style="fill:#000000;stroke-width:2.0999999;stroke-miterlimit:4;stroke-dasharray:none"
       id="path2985-9-07-4"
       sodipodi:cx="76.428574"
       sodipodi:cy="72.14286"
       sodipodi:rx="17.857143"
       sodipodi:ry="17.857143"
       d="m 94.285717,72.14286 c 0,9.862228 -7.994915,17.857144 -17.857143,17.857144 -9.862228,0 -17.857144,-7.994916 -17.857144,-17.857144 0,-9.862228 7.994916,-17.857143 17.857144,-17.857143 9.862228,0 17.857143,7.994915 17.857143,17.857143 z" />
    <path
       transform="matrix(0.76,0,0,0.76,334.77143,900.39076)"
       sodipodi:type="arc"
       style="fill:#000000;stroke-width:2.0999999;stroke-miterlimit:4;stroke-dasharray:none"
       id="path2985-9-07-51"
       sodipodi:cx="76.428574"
       sodipodi:cy="72.14286"
       sodipodi:rx="17.857143"
       sodipodi:ry="17.857143"
       d="m 94.285717,72.14286 c 0,9.862228 -7.994915,17.857144 -17.857143,17.857144 -9.862228,0 -17.857144,-7.994916 -17.857144,-17.857144 0,-9.862228 7.994916,-17.857143 17.857144,-17.857143 9.862228,0 17.857143,7.994915 17.857143,17.857143 z" />
    <path
       transform="matrix(0.76,0,0,0.76,69.057141,934.67647)"
       sodipodi:type="arc"
       style="fill:#000000;stroke-width:2.0999999;stroke-miterlimit:4;stroke-dasharray:none"
       id="path2985-9-07-0"
       sodipodi:cx="76.428574"
       sodipodi:cy="72.14286"
       sodipodi:rx="17.857143"
       sodipodi:ry="17.857143"
       d="m 94.285717,72.14286 c 0,9.862228 -7.994915,17.857144 -17.857143,17.857144 -9.862228,0 -17.857144,-7.994916 -17.857144,-17.857144 0,-9.862228 7.994916,-17.857143 17.857144,-17.857143 9.862228,0 17.857143,7.994915 17.857143,17.857143 z" />
    <path
       transform="matrix(0.76,0,0,0.76,151.91428,656.10503)"
       sodipodi:type="arc"
       style="fill:#000000;stroke-width:2.0999999;stroke-miterlimit:4;stroke-dasharray:none"
       id="path2985-9-07-08"
       sodipodi:cx="76.428574"
       sodipodi:cy="72.14286"
       sodipodi:rx="17.857143"
       sodipodi:ry="17.857143"
       d="m 94.285717,72.14286 c 0,9.862228 -7.994915,17.857144 -17.857143,17.857144 -9.862228,0 -17.857144,-7.994916 -17.857144,-17.857144 0,-9.862228 7.994916,-17.857143 17.857144,-17.857143 9.862228,0 17.857143,7.994915 17.857143,17.857143 z" />
    <path
       transform="matrix(0.76,0,0,0.76,39.057141,693.24789)"
       sodipodi:type="arc"
       style="fill:#000000;stroke-width:2.0999999;stroke-miterlimit:4;stroke-dasharray:none"
       id="path2985-9-07-086"
       sodipodi:cx="76.428574"
       sodipodi:cy="72.14286"
       sodipodi:rx="17.857143"
       sodipodi:ry="17.857143"
       d="m 94.285717,72.14286 c 0,9.862228 -7.994915,17.857144 -17.857143,17.857144 -9.862228,0 -17.857144,-7.994916 -17.857144,-17.857144 0,-9.862228 7.994916,-17.857143 17.857144,-17.857143 9.862228,0 17.857143,7.994915 17.857143,17.857143 z" />
    <path
       transform="matrix(0.76,0,0,0.76,-6.6571445,527.53361)"
       sodipodi:type="arc"
       style="fill:#000000;stroke-width:2.0999999;stroke-miterlimit:4;stroke-dasharray:none"
       id="path2985-9-07-6"
       sodipodi:cx="76.428574"
       sodipodi:cy="72.14286"
       sodipodi:rx="17.857143"
       sodipodi:ry="17.857143"
       d="m 94.285717,72.14286 c 0,9.862228 -7.994915,17.857144 -17.857143,17.857144 -9.862228,0 -17.857144,-7.994916 -17.857144,-17.857144 0,-9.862228 7.994916,-17.857143 17.857144,-17.857143 9.862228,0 17.857143,7.994915 17.857143,17.857143 z" />
    <path
       transform="matrix(0.76,0,0,0.76,30.485713,414.67647)"
       sodipodi:type="arc"
       style="fill:#000000;stroke-width:2.0999999;stroke-miterlimit:4;stroke-dasharray:none"
       id="path2985-9-07-91"
       sodipodi:cx="76.428574"
       sodipodi:cy="72.14286"
       sodipodi:rx="17.857143"
       sodipodi:ry="17.857143"
       d="m 94.285717,72.14286 c 0,9.862228 -7.994915,17.857144 -17.857143,17.857144 -9.862228,0 -17.857144,-7.994916 -17.857144,-17.857144 0,-9.862228 7.994916,-17.857143 17.857144,-17.857143 9.862228,0 17.857143,7.994915 17.857143,17.857143 z" />
    <path
       transform="matrix(0.76,0,0,0.76,47.62857,187.53361)"
       sodipodi:type="arc"
       style="fill:#000000;stroke-width:2.0999999;stroke-miterlimit:4;stroke-dasharray:none"
       id="path2985-9-07-200"
       sodipodi:cx="76.428574"
       sodipodi:cy="72.14286"
       sodipodi:rx="17.857143"
       sodipodi:ry="17.857143"
       d="m 94.285717,72.14286 c 0,9.862228 -7.994915,17.857144 -17.857143,17.857144 -9.862228,0 -17.857144,-7.994916 -17.857144,-17.857144 0,-9.862228 7.994916,-17.857143 17.857144,-17.857143 9.862228,0 17.857143,7.994915 17.857143,17.857143 z" />
    <path
       transform="matrix(0.76,0,0,0.76,34.771427,118.96218)"
       sodipodi:type="arc"
       style="fill:#000000;stroke-width:2.0999999;stroke-miterlimit:4;stroke-dasharray:none"
       id="path2985-9-07-74"
       sodipodi:cx="76.428574"
       sodipodi:cy="72.14286"
       sodipodi:rx="17.857143"
       sodipodi:ry="17.857143"
       d="m 94.285717,72.14286 c 0,9.862228 -7.994915,17.857144 -17.857143,17.857144 -9.862228,0 -17.857144,-7.994916 -17.857144,-17.857144 0,-9.862228 7.994916,-17.857143 17.857144,-17.857143 9.862228,0 17.857143,7.994915 17.857143,17.857143 z" />
    <path
       transform="matrix(0.76,0,0,0.76,334.77143,37.533609)"
       sodipodi:type="arc"
       style="fill:#000000;stroke-width:2.0999999;stroke-miterlimit:4;stroke-dasharray:none"
       id="path2985-9-07-21"
       sodipodi:cx="76.428574"
       sodipodi:cy="72.14286"
       sodipodi:rx="17.857143"
       sodipodi:ry="17.857143"
       d="m 94.285717,72.14286 c 0,9.862228 -7.994915,17.857144 -17.857143,17.857144 -9.862228,0 -17.857144,-7.994916 -17.857144,-17.857144 0,-9.862228 7.994916,-17.857143 17.857144,-17.857143 9.862228,0 17.857143,7.994915 17.857143,17.857143 z" />
    <path
       transform="matrix(0.76,0,0,0.76,260.48571,211.81932)"
       sodipodi:type="arc"
       style="fill:#000000;stroke-width:2.0999999;stroke-miterlimit:4;stroke-dasharray:none"
       id="path2985-9-07-99"
       sodipodi:cx="76.428574"
       sodipodi:cy="72.14286"
       sodipodi:rx="17.857143"
       sodipodi:ry="17.857143"
       d="m 94.285717,72.14286 c 0,9.862228 -7.994915,17.857144 -17.857143,17.857144 -9.862228,0 -17.857144,-7.994916 -17.857144,-17.857144 0,-9.862228 7.994916,-17.857143 17.857144,-17.857143 9.862228,0 17.857143,7.994915 17.857143,17.857143 z" />
    <path
       transform="matrix(0.76,0,0,0.76,96.199998,258.96218)"
       sodipodi:type="arc"
       style="fill:#000000;stroke-width:2.0999999;stroke-miterlimit:4;stroke-dasharray:none"
       id="path2985-9-07-66"
       sodipodi:cx="76.428574"
       sodipodi:cy="72.14286"
       sodipodi:rx="17.857143"
       sodipodi:ry="17.857143"
       d="m 94.285717,72.14286 c 0,9.862228 -7.994915,17.857144 -17.857143,17.857144 -9.862228,0 -17.857144,-7.994916 -17.857144,-17.857144 0,-9.862228 7.994916,-17.857143 17.857144,-17.857143 9.862228,0 17.857143,7.994915 17.857143,17.857143 z" />
    <path
       transform="matrix(0.76,0,0,0.76,560.48571,91.819323)"
       sodipodi:type="arc"
       style="fill:#000000;stroke-width:2.0999999;stroke-miterlimit:4;stroke-dasharray:none"
       id="path2985-9-07-17"
       sodipodi:cx="76.428574"
       sodipodi:cy="72.14286"
       sodipodi:rx="17.857143"
       sodipodi:ry="17.857143"
       d="m 94.285717,72.14286 c 0,9.862228 -7.994915,17.857144 -17.857143,17.857144 -9.862228,0 -17.857144,-7.994916 -17.857144,-17.857144 0,-9.862228 7.994916,-17.857143 17.857144,-17.857143 9.862228,0 17.857143,7.994915 17.857143,17.857143 z" />
    <path
       transform="matrix(0.76,0,0,0.76,764.77143,110.39075)"
       sodipodi:type="arc"
       style="fill:#000000;stroke-width:2.0999999;stroke-miterlimit:4;stroke-dasharray:none"
       id="path2985-9-07-351"
       sodipodi:cx="76.428574"
       sodipodi:cy="72.14286"
       sodipodi:rx="17.857143"
       sodipodi:ry="17.857143"
       d="m 94.285717,72.14286 c 0,9.862228 -7.994915,17.857144 -17.857143,17.857144 -9.862228,0 -17.857144,-7.994916 -17.857144,-17.857144 0,-9.862228 7.994916,-17.857143 17.857144,-17.857143 9.862228,0 17.857143,7.994915 17.857143,17.857143 z" />
    <path
       transform="matrix(0.76,0,0,0.76,869.05714,310.39075)"
       sodipodi:type="arc"
       style="fill:#000000;stroke-width:2.0999999;stroke-miterlimit:4;stroke-dasharray:none"
       id="path2985-9-07-59"
       sodipodi:cx="76.428574"
       sodipodi:cy="72.14286"
       sodipodi:rx="17.857143"
       sodipodi:ry="17.857143"
       d="m 94.285717,72.14286 c 0,9.862228 -7.994915,17.857144 -17.857143,17.857144 -9.862228,0 -17.857144,-7.994916 -17.857144,-17.857144 0,-9.862228 7.994916,-17.857143 17.857144,-17.857143 9.862228,0 17.857143,7.994915 17.857143,17.857143 z" />
    <path
       transform="matrix(0.76,0,0,0.76,829.05714,416.10504)"
       sodipodi:type="arc"
       style="fill:#000000;stroke-width:2.0999999;stroke-miterlimit:4;stroke-dasharray:none"
       id="path2985-9-07-19"
       sodipodi:cx="76.428574"
       sodipodi:cy="72.14286"
       sodipodi:rx="17.857143"
       sodipodi:ry="17.857143"
       d="m 94.285717,72.14286 c 0,9.862228 -7.994915,17.857144 -17.857143,17.857144 -9.862228,0 -17.857144,-7.994916 -17.857144,-17.857144 0,-9.862228 7.994916,-17.857143 17.857144,-17.857143 9.862228,0 17.857143,7.994915 17.857143,17.857143 z" />
    <path
       transform="matrix(0.76,0,0,0.76,81.914284,813.24789)"
       sodipodi:type="arc"
       style="fill:#000000;stroke-width:2.0999999;stroke-miterlimit:4;stroke-dasharray:none"
       id="path2985-9-07-27"
       sodipodi:cx="76.428574"
       sodipodi:cy="72.14286"
       sodipodi:rx="17.857143"
       sodipodi:ry="17.857143"
       d="m 94.285717,72.14286 c 0,9.862228 -7.994915,17.857144 -17.857143,17.857144 -9.862228,0 -17.857144,-7.994916 -17.857144,-17.857144 0,-9.862228 7.994916,-17.857143 17.857144,-17.857143 9.862228,0 17.857143,7.994915 17.857143,17.857143 z" />
    <path
       transform="matrix(0.76,0,0,0.76,-25.228573,837.53361)"
       sodipodi:type="arc"
       style="fill:#000000;stroke-width:2.0999999;stroke-miterlimit:4;stroke-dasharray:none"
       id="path2985-9-07-50"
       sodipodi:cx="76.428574"
       sodipodi:cy="72.14286"
       sodipodi:rx="17.857143"
       sodipodi:ry="17.857143"
       d="m 94.285717,72.14286 c 0,9.862228 -7.994915,17.857144 -17.857143,17.857144 -9.862228,0 -17.857144,-7.994916 -17.857144,-17.857144 0,-9.862228 7.994916,-17.857143 17.857144,-17.857143 9.862228,0 17.857143,7.994915 17.857143,17.857143 z" />
    <path
       transform="matrix(0.32000001,0,0,0.32000001,254.02763,624.48567)"
       sodipodi:type="arc"
       style="fill:#000000;stroke-width:2.0999999;stroke-miterlimit:4;stroke-dasharray:none"
       id="path2985-9-07-24"
       sodipodi:cx="76.428574"
       sodipodi:cy="72.14286"
       sodipodi:rx="17.857143"
       sodipodi:ry="17.857143"
       d="m 94.285717,72.14286 c 0,9.862228 -7.994915,17.857144 -17.857143,17.857144 -9.862228,0 -17.857144,-7.994916 -17.857144,-17.857144 0,-9.862228 7.994916,-17.857143 17.857144,-17.857143 9.862228,0 17.857143,7.994915 17.857143,17.857143 z" />
    <path
       transform="matrix(0.32000001,0,0,0.32000001,395.54286,812.13361)"
       sodipodi:type="arc"
       style="fill:#000000;stroke-width:2.0999999;stroke-miterlimit:4;stroke-dasharray:none"
       id="path2985-9-07-24-7"
       sodipodi:cx="76.428574"
       sodipodi:cy="72.14286"
       sodipodi:rx="17.857143"
       sodipodi:ry="17.857143"
       d="m 94.285717,72.14286 c 0,9.862228 -7.994915,17.857144 -17.857143,17.857144 -9.862228,0 -17.857144,-7.994916 -17.857144,-17.857144 0,-9.862228 7.994916,-17.857143 17.857144,-17.857143 9.862228,0 17.857143,7.994915 17.857143,17.857143 z" />
    <path
       transform="matrix(0.32000001,0,0,0.32000001,556.97143,854.99075)"
       sodipodi:type="arc"
       style="fill:#000000;stroke-width:2.0999999;stroke-miterlimit:4;stroke-dasharray:none"
       id="path2985-9-07-24-6"
       sodipodi:cx="76.428574"
       sodipodi:cy="72.14286"
       sodipodi:rx="17.857143"
       sodipodi:ry="17.857143"
       d="m 94.285717,72.14286 c 0,9.862228 -7.994915,17.857144 -17.857143,17.857144 -9.862228,0 -17.857144,-7.994916 -17.857144,-17.857144 0,-9.862228 7.994916,-17.857143 17.857144,-17.857143 9.862228,0 17.857143,7.994915 17.857143,17.857143 z" />
    <path
       transform="matrix(0.32000001,0,0,0.32000001,682.68571,687.8479)"
       sodipodi:type="arc"
       style="fill:#000000;stroke-width:2.0999999;stroke-miterlimit:4;stroke-dasharray:none"
       id="path2985-9-07-24-3"
       sodipodi:cx="76.428574"
       sodipodi:cy="72.14286"
       sodipodi:rx="17.857143"
       sodipodi:ry="17.857143"
       d="m 94.285717,72.14286 c 0,9.862228 -7.994915,17.857144 -17.857143,17.857144 -9.862228,0 -17.857144,-7.994916 -17.857144,-17.857144 0,-9.862228 7.994916,-17.857143 17.857144,-17.857143 9.862228,0 17.857143,7.994915 17.857143,17.857143 z" />
    <path
       transform="matrix(0.32000001,0,0,0.32000001,739.82857,473.56218)"
       sodipodi:type="arc"
       style="fill:#000000;stroke-width:2.0999999;stroke-miterlimit:4;stroke-dasharray:none"
       id="path2985-9-07-24-60"
       sodipodi:cx="76.428574"
       sodipodi:cy="72.14286"
       sodipodi:rx="17.857143"
       sodipodi:ry="17.857143"
       d="m 94.285717,72.14286 c 0,9.862228 -7.994915,17.857144 -17.857143,17.857144 -9.862228,0 -17.857144,-7.994916 -17.857144,-17.857144 0,-9.862228 7.994916,-17.857143 17.857144,-17.857143 9.862228,0 17.857143,7.994915 17.857143,17.857143 z" />
    <path
       transform="matrix(0.32000001,0,0,0.32000001,505.54286,243.56218)"
       sodipodi:type="arc"
       style="fill:#000000;stroke-width:2.0999999;stroke-miterlimit:4;stroke-dasharray:none"
       id="path2985-9-07-24-9"
       sodipodi:cx="76.428574"
       sodipodi:cy="72.14286"
       sodipodi:rx="17.857143"
       sodipodi:ry="17.857143"
       d="m 94.285717,72.14286 c 0,9.862228 -7.994915,17.857144 -17.857143,17.857144 -9.862228,0 -17.857144,-7.994916 -17.857144,-17.857144 0,-9.862228 7.994916,-17.857143 17.857144,-17.857143 9.862228,0 17.857143,7.994915 17.857143,17.857143 z" />
    <path
       transform="matrix(0.32000001,0,0,0.32000001,302.68571,326.41932)"
       sodipodi:type="arc"
       style="fill:#000000;stroke-width:2.0999999;stroke-miterlimit:4;stroke-dasharray:none"
       id="path2985-9-07-24-8"
       sodipodi:cx="76.428574"
       sodipodi:cy="72.14286"
       sodipodi:rx="17.857143"
       sodipodi:ry="17.857143"
       d="m 94.285717,72.14286 c 0,9.862228 -7.994915,17.857144 -17.857143,17.857144 -9.862228,0 -17.857144,-7.994916 -17.857144,-17.857144 0,-9.862228 7.994916,-17.857143 17.857144,-17.857143 9.862228,0 17.857143,7.994915 17.857143,17.857143 z" />
    <path
       transform="matrix(0.32000001,0,0,0.32000001,181.0046,441.62853)"
       sodipodi:type="arc"
       style="fill:#000000;stroke-width:2.0999999;stroke-miterlimit:4;stroke-dasharray:none"
       id="path2985-9-07-24-39"
       sodipodi:cx="76.428574"
       sodipodi:cy="72.14286"
       sodipodi:rx="17.857143"
       sodipodi:ry="17.857143"
       d="m 94.285717,72.14286 c 0,9.862228 -7.994915,17.857144 -17.857143,17.857144 -9.862228,0 -17.857144,-7.994916 -17.857144,-17.857144 0,-9.862228 7.994916,-17.857143 17.857144,-17.857143 9.862228,0 17.857143,7.994915 17.857143,17.857143 z" />
    <path
       transform="matrix(0.32000001,0,0,0.32000001,68.115894,364.39901)"
       sodipodi:type="arc"
       style="fill:#000000;stroke-width:2.0999999;stroke-miterlimit:4;stroke-dasharray:none"
       id="path2985-9-07-24-70"
       sodipodi:cx="76.428574"
       sodipodi:cy="72.14286"
       sodipodi:rx="17.857143"
       sodipodi:ry="17.857143"
       d="m 94.285717,72.14286 c 0,9.862228 -7.994915,17.857144 -17.857143,17.857144 -9.862228,0 -17.857144,-7.994916 -17.857144,-17.857144 0,-9.862228 7.994916,-17.857143 17.857144,-17.857143 9.862228,0 17.857143,7.994915 17.857143,17.857143 z" />
    <path
       transform="matrix(0.32000001,0,0,0.32000001,845.54286,690.70504)"
       sodipodi:type="arc"
       style="fill:#000000;stroke-width:2.0999999;stroke-miterlimit:4;stroke-dasharray:none"
       id="path2985-9-07-24-1"
       sodipodi:cx="76.428574"
       sodipodi:cy="72.14286"
       sodipodi:rx="17.857143"
       sodipodi:ry="17.857143"
       d="m 94.285717,72.14286 c 0,9.862228 -7.994915,17.857144 -17.857143,17.857144 -9.862228,0 -17.857144,-7.994916 -17.857144,-17.857144 0,-9.862228 7.994916,-17.857143 17.857144,-17.857143 9.862228,0 17.857143,7.994915 17.857143,17.857143 z" />
    <path
       transform="matrix(0.32000001,0,0,0.32000001,144.11428,622.13361)"
       sodipodi:type="arc"
       style="fill:#000000;stroke-width:2.0999999;stroke-miterlimit:4;stroke-dasharray:none"
       id="path2985-9-07-24-66"
       sodipodi:cx="76.428574"
       sodipodi:cy="72.14286"
       sodipodi:rx="17.857143"
       sodipodi:ry="17.857143"
       d="m 94.285717,72.14286 c 0,9.862228 -7.994915,17.857144 -17.857143,17.857144 -9.862228,0 -17.857144,-7.994916 -17.857144,-17.857144 0,-9.862228 7.994916,-17.857143 17.857144,-17.857143 9.862228,0 17.857143,7.994915 17.857143,17.857143 z" />
    <path
       transform="matrix(0.9171573,0,0,0.9171573,-19.382739,35.481546)"
       sodipodi:type="arc"
       style="fill:#000000;stroke-width:2.0999999;stroke-miterlimit:4;stroke-dasharray:none"
       id="path2985"
       sodipodi:cx="76.428574"
       sodipodi:cy="72.14286"
       sodipodi:rx="17.857143"
       sodipodi:ry="17.857143"
       d="m 94.285717,72.14286 c 0,9.862228 -7.994915,17.857144 -17.857143,17.857144 -9.862228,0 -17.857144,-7.994916 -17.857144,-17.857144 0,-9.862228 7.994916,-17.857143 17.857144,-17.857143 9.862228,0 17.857143,7.994915 17.857143,17.857143 z" />
    <path
       transform="matrix(1.48,0,0,1.48,72.599997,111.30503)"
       sodipodi:type="arc"
       style="fill:#000000;stroke-width:2.0999999;stroke-miterlimit:4;stroke-dasharray:none"
       id="path2985-1"
       sodipodi:cx="76.428574"
       sodipodi:cy="72.14286"
       sodipodi:rx="10.01448"
       sodipodi:ry="10.01448"
       d="m 86.443053,72.14286 c 0,5.530845 -4.483635,10.01448 -10.014479,10.01448 -5.530845,0 -10.01448,-4.483635 -10.01448,-10.01448 0,-5.530844 4.483635,-10.014479 10.01448,-10.014479 5.530844,0 10.014479,4.483635 10.014479,10.014479 z" />
    <path
       transform="matrix(1.48,0,0,1.48,201.17143,-22.980679)"
       sodipodi:type="arc"
       style="fill:#000000;stroke-width:2.0999999;stroke-miterlimit:4;stroke-dasharray:none"
       id="path2985-4"
       sodipodi:cx="76.428574"
       sodipodi:cy="72.14286"
       sodipodi:rx="11.100387"
       sodipodi:ry="11.100387"
       d="m 87.52896,72.14286 c 0,6.130575 -4.969812,11.100387 -11.100386,11.100387 -6.130575,0 -11.100387,-4.969812 -11.100387,-11.100387 0,-6.130574 4.969812,-11.100386 11.100387,-11.100386 6.130574,0 11.100386,4.969812 11.100386,11.100386 z" />
    <path
       transform="matrix(1.48,0,0,1.48,605.45714,82.733606)"
       sodipodi:type="arc"
       style="fill:#000000;stroke-width:2.0999999;stroke-miterlimit:4;stroke-dasharray:none"
       id="path2985-85"
       sodipodi:cx="76.428574"
       sodipodi:cy="72.14286"
       sodipodi:rx="11.100387"
       sodipodi:ry="11.100387"
       d="m 87.52896,72.14286 c 0,6.130575 -4.969812,11.100387 -11.100386,11.100387 -6.130575,0 -11.100387,-4.969812 -11.100387,-11.100387 0,-6.130574 4.969812,-11.100386 11.100387,-11.100386 6.130574,0 11.100386,4.969812 11.100386,11.100386 z" />
    <path
       transform="matrix(1.17,0,0,1.17,769.15,179.38361)"
       sodipodi:type="arc"
       style="fill:#000000;stroke-width:2.0999999;stroke-miterlimit:4;stroke-dasharray:none"
       id="path2985-80"
       sodipodi:cx="76.428574"
       sodipodi:cy="72.14286"
       sodipodi:rx="17.857143"
       sodipodi:ry="17.857143"
       d="m 94.285717,72.14286 c 0,9.862228 -7.994915,17.857144 -17.857143,17.857144 -9.862228,0 -17.857144,-7.994916 -17.857144,-17.857144 0,-9.862228 7.994916,-17.857143 17.857144,-17.857143 9.862228,0 17.857143,7.994915 17.857143,17.857143 z" />
    <path
       transform="matrix(0.95320544,0,0,0.95320544,446.57966,123.19289)"
       sodipodi:type="arc"
       style="fill:#000000;stroke-width:2.0999999;stroke-miterlimit:4;stroke-dasharray:none"
       id="path2985-7"
       sodipodi:cx="76.428574"
       sodipodi:cy="72.14286"
       sodipodi:rx="17.857143"
       sodipodi:ry="17.857143"
       d="m 94.285717,72.14286 c 0,9.862228 -7.994915,17.857144 -17.857143,17.857144 -9.862228,0 -17.857144,-7.994916 -17.857144,-17.857144 0,-9.862228 7.994916,-17.857143 17.857144,-17.857143 9.862228,0 17.857143,7.994915 17.857143,17.857143 z" />
    <path
       transform="matrix(0.98000001,0,0,0.98000001,790.81429,825.94789)"
       sodipodi:type="arc"
       style="fill:#000000;stroke-width:2.0999999;stroke-miterlimit:4;stroke-dasharray:none"
       id="path2985-49"
       sodipodi:cx="76.428574"
       sodipodi:cy="72.14286"
       sodipodi:rx="17.857143"
       sodipodi:ry="17.857143"
       d="m 94.285717,72.14286 c 0,9.862228 -7.994915,17.857144 -17.857143,17.857144 -9.862228,0 -17.857144,-7.994916 -17.857144,-17.857144 0,-9.862228 7.994916,-17.857143 17.857144,-17.857143 9.862228,0 17.857143,7.994915 17.857143,17.857143 z" />
    <path
       transform="matrix(0.97296298,0,0,0.97296298,665.63783,926.45556)"
       sodipodi:type="arc"
       style="fill:#000000;stroke-width:2.0999999;stroke-miterlimit:4;stroke-dasharray:none"
       id="path2985-6"
       sodipodi:cx="76.428574"
       sodipodi:cy="72.14286"
       sodipodi:rx="13.030889"
       sodipodi:ry="13.030889"
       d="m 89.459462,72.14286 c 0,7.196761 -5.834127,13.030889 -13.030888,13.030889 -7.196761,0 -13.030889,-5.834128 -13.030889,-13.030889 0,-7.196761 5.834128,-13.030888 13.030889,-13.030888 7.196761,0 13.030888,5.834127 13.030888,13.030888 z" />
    <path
       transform="matrix(1.0688889,0,0,1.0688889,861.16348,635.24948)"
       sodipodi:type="arc"
       style="fill:#000000;stroke-width:2.0999999;stroke-miterlimit:4;stroke-dasharray:none"
       id="path2985-74"
       sodipodi:cx="76.428574"
       sodipodi:cy="72.14286"
       sodipodi:rx="13.030889"
       sodipodi:ry="13.030889"
       d="m 89.459462,72.14286 c 0,7.196761 -5.834127,13.030889 -13.030888,13.030889 -7.196761,0 -13.030889,-5.834128 -13.030889,-13.030889 0,-7.196761 5.834128,-13.030888 13.030889,-13.030888 7.196761,0 13.030888,5.834127 13.030888,13.030888 z" />
    <path
       transform="matrix(0.94259886,0,0,0.94259886,-6.3272006,747.21755)"
       sodipodi:type="arc"
       style="fill:#000000;stroke-width:2.0999999;stroke-miterlimit:4;stroke-dasharray:none"
       id="path2985-2"
       sodipodi:cx="76.428574"
       sodipodi:cy="72.14286"
       sodipodi:rx="17.857143"
       sodipodi:ry="17.857143"
       d="m 94.285717,72.14286 c 0,9.862228 -7.994915,17.857144 -17.857143,17.857144 -9.862228,0 -17.857144,-7.994916 -17.857144,-17.857144 0,-9.862228 7.994916,-17.857143 17.857144,-17.857143 9.862228,0 17.857143,7.994915 17.857143,17.857143 z" />
    <path
       transform="matrix(1.1451142,0,0,1.1451142,109.62341,722.60751)"
       sodipodi:type="arc"
       style="fill:#000000;stroke-width:2.0999999;stroke-miterlimit:4;stroke-dasharray:none"
       id="path2985-60"
       sodipodi:cx="76.428574"
       sodipodi:cy="72.14286"
       sodipodi:rx="12.065638"
       sodipodi:ry="12.065638"
       d="m 88.494211,72.14286 c 0,6.663668 -5.40197,12.065638 -12.065637,12.065638 -6.663668,0 -12.065638,-5.40197 -12.065638,-12.065638 0,-6.663667 5.40197,-12.065637 12.065638,-12.065637 6.663667,0 12.065637,5.40197 12.065637,12.065637 z" />
    <path
       transform="matrix(0.8304371,0,0,0.8304371,147.95945,932.45208)"
       sodipodi:type="arc"
       style="fill:#000000;stroke-width:2.0999999;stroke-miterlimit:4;stroke-dasharray:none"
       id="path2985-75"
       sodipodi:cx="76.428574"
       sodipodi:cy="72.14286"
       sodipodi:rx="13.99614"
       sodipodi:ry="13.99614"
       d="m 90.424713,72.14286 c 0,7.729855 -6.266285,13.99614 -13.996139,13.99614 -7.729855,0 -13.99614,-6.266285 -13.99614,-13.99614 0,-7.729854 6.266285,-13.996139 13.99614,-13.996139 7.729854,0 13.996139,6.266285 13.996139,13.996139 z" />
    <path
       transform="matrix(1.0840202,0,0,1.0840202,0.00702421,567.015)"
       sodipodi:type="arc"
       style="fill:#000000;stroke-width:2.0999999;stroke-miterlimit:4;stroke-dasharray:none"
       id="path2985-751"
       sodipodi:cx="76.428574"
       sodipodi:cy="72.14286"
       sodipodi:rx="11.267915"
       sodipodi:ry="11.267915"
       d="m 87.696488,72.14286 c 0,6.223098 -5.044817,11.267915 -11.267914,11.267915 -6.223098,0 -11.267915,-5.044817 -11.267915,-11.267915 0,-6.223097 5.044817,-11.267914 11.267915,-11.267914 6.223097,0 11.267914,5.044817 11.267914,11.267914 z" />
    <path
       transform="matrix(1.48,0,0,1.48,26.885711,299.87646)"
       sodipodi:type="arc"
       style="fill:#000000;stroke-width:2.0999999;stroke-miterlimit:4;stroke-dasharray:none"
       id="path2985-96"
       sodipodi:cx="76.428574"
       sodipodi:cy="72.14286"
       sodipodi:rx="10.135136"
       sodipodi:ry="10.135136"
       d="m 86.563709,72.14286 c 0,5.597481 -4.537655,10.135136 -10.135135,10.135136 -5.597481,0 -10.135136,-4.537655 -10.135136,-10.135136 0,-5.59748 4.537655,-10.135135 10.135136,-10.135135 5.59748,0 10.135135,4.537655 10.135135,10.135135 z" />
    <path
       transform="matrix(0.88603032,0,0,0.88603032,223.71054,777.01285)"
       sodipodi:type="arc"
       style="fill:#000000;stroke-width:2.0999999;stroke-miterlimit:4;stroke-dasharray:none"
       id="path2985-73"
       sodipodi:cx="76.428574"
       sodipodi:cy="72.14286"
       sodipodi:rx="17.857143"
       sodipodi:ry="17.857143"
       d="m 94.285717,72.14286 c 0,9.862228 -7.994915,17.857144 -17.857143,17.857144 -9.862228,0 -17.857144,-7.994916 -17.857144,-17.857144 0,-9.862228 7.994916,-17.857143 17.857144,-17.857143 9.862228,0 17.857143,7.994915 17.857143,17.857143 z" />
    <path
       transform="matrix(1.1451142,0,0,1.1451142,325.33769,926.89323)"
       sodipodi:type="arc"
       style="fill:#000000;stroke-width:2.0999999;stroke-miterlimit:4;stroke-dasharray:none"
       id="path2985-856"
       sodipodi:cx="76.428574"
       sodipodi:cy="72.14286"
       sodipodi:rx="12.065638"
       sodipodi:ry="12.065638"
       d="m 88.494211,72.14286 c 0,6.663668 -5.40197,12.065638 -12.065637,12.065638 -6.663668,0 -12.065638,-5.40197 -12.065638,-12.065638 0,-6.663667 5.40197,-12.065637 12.065638,-12.065637 6.663667,0 12.065637,5.40197 12.065637,12.065637 z" />
    <path
       transform="matrix(1.0830449,0,0,1.0830449,490.08156,864.22823)"
       sodipodi:type="arc"
       style="fill:#000000;stroke-width:2.0999999;stroke-miterlimit:4;stroke-dasharray:none"
       id="path2985-70"
       sodipodi:cx="76.428574"
       sodipodi:cy="72.14286"
       sodipodi:rx="13.99614"
       sodipodi:ry="13.99614"
       d="m 90.424713,72.14286 c 0,7.729855 -6.266285,13.99614 -13.996139,13.99614 -7.729855,0 -13.99614,-6.266285 -13.99614,-13.99614 0,-7.729854 6.266285,-13.996139 13.99614,-13.996139 7.729854,0 13.996139,6.266285 13.996139,13.996139 z" />
    <path
       transform="matrix(1.0334483,0,0,1.0334483,788.15788,560.66341)"
       sodipodi:type="arc"
       style="fill:#000000;stroke-width:2.0999999;stroke-miterlimit:4;stroke-dasharray:none"
       id="path2985-88"
       sodipodi:cx="76.428574"
       sodipodi:cy="72.14286"
       sodipodi:rx="13.99614"
       sodipodi:ry="13.99614"
       d="m 90.424713,72.14286 c 0,7.729855 -6.266285,13.99614 -13.996139,13.99614 -7.729855,0 -13.99614,-6.266285 -13.99614,-13.99614 0,-7.729854 6.266285,-13.996139 13.99614,-13.996139 7.729854,0 13.996139,6.266285 13.996139,13.996139 z" />
    <path
       transform="matrix(0.84000002,0,0,0.84000002,874.37143,478.90504)"
       sodipodi:type="arc"
       style="fill:#000000;stroke-width:2.0999999;stroke-miterlimit:4;stroke-dasharray:none"
       id="path2985-63"
       sodipodi:cx="76.428574"
       sodipodi:cy="72.14286"
       sodipodi:rx="17.857143"
       sodipodi:ry="17.857143"
       d="m 94.285717,72.14286 c 0,9.862228 -7.994915,17.857144 -17.857143,17.857144 -9.862228,0 -17.857144,-7.994916 -17.857144,-17.857144 0,-9.862228 7.994916,-17.857143 17.857144,-17.857143 9.862228,0 17.857143,7.994915 17.857143,17.857143 z" />
    <path
       style="fill:none;stroke:#000000;stroke-width:1px;stroke-linecap:butt;stroke-linejoin:miter;stroke-opacity:1"
       d="M 53.538085,56.517523 52.527932,183.79674 93.944187,120.15713 178.797,97.933777 48.487322,53.487065 93.944187,123.18759 184.85792,165.614 105.05586,187.83735 92.934034,122.17744"
       id="path3929"
       inkscape:connector-curvature="0"
       transform="translate(0,52.362183)" />
    <path
       style="fill:none;stroke:#000000;stroke-width:1px;stroke-linecap:butt;stroke-linejoin:miter;stroke-opacity:1"
       d="m 53.538085,182.78659 51.517775,8.08122 2.02031,71.72083 33.33503,93.94419 12.12183,-97.9848 -47.47717,5.05076 -56.568538,-81.82235 5.050763,136.37059 51.517775,-55.55839 -13.131978,71.72083 -37.375645,-19.1929 32.324882,102.02541 -48.487322,38.3858 121.218303,29.29442 -73.741134,-69.70052 6.060916,-80.81221 48.487318,23.23351 -52.527929,59.599 118.187849,-5.05076 -66.67007,-54.54824 83.84266,-56.56854 -69.70052,-43.43656 -48.48733,-66.67007"
       id="path3931"
       inkscape:connector-curvature="0"
       transform="translate(0,52.362183)" />
    <path
       style="fill:none;stroke:#000000;stroke-width:1px;stroke-linecap:butt;stroke-linejoin:miter;stroke-opacity:1"
       d="M 52.527932,315.11657 39.395949,454.51763"
       id="path3933"
       inkscape:connector-curvature="0"
       transform="translate(0,52.362183)" />
    <path
       style="fill:none;stroke:#000000;stroke-width:1px;stroke-linecap:butt;stroke-linejoin:miter;stroke-opacity:1"
       d="m 179.80715,96.923624 6.06092,69.700526 57.57869,-81.822356 z"
       id="path3935"
       inkscape:connector-curvature="0"
       transform="translate(0,52.362183)" />
    <path
       style="fill:none;stroke:#000000;stroke-width:1px;stroke-linecap:butt;stroke-linejoin:miter;stroke-opacity:1"
       d="M 55.976808,105.43083 317.60632,81.187168 180.22557,144.82678"
       id="path3937"
       inkscape:connector-curvature="0" />
    <path
       style="fill:none;stroke:#000000;stroke-width:1px;stroke-linecap:butt;stroke-linejoin:miter;stroke-opacity:1"
       d="M 243.44676,84.801794 314.15744,32.273862 393.95949,39.344929 361.63461,124.19774 314.15744,31.263709 259.6092,190.86781 z"
       id="path3939"
       inkscape:connector-curvature="0"
       transform="translate(0,52.362183)" />
    <path
       style="fill:none;stroke:#000000;stroke-width:1px;stroke-linecap:butt;stroke-linejoin:miter;stroke-opacity:1"
       d="m 187.88837,166.62415 -32.32488,95.96449 103.03556,-71.72083 z"
       id="path3941"
       inkscape:connector-curvature="0"
       transform="translate(0,52.362183)" />
    <path
       style="fill:none;stroke:#000000;stroke-width:1px;stroke-linecap:butt;stroke-linejoin:miter;stroke-opacity:1"
       d="m 226.27417,300.97444 34.34519,-112.12693 58.58884,24.24366 z"
       id="path3943"
       inkscape:connector-curvature="0"
       transform="translate(0,52.362183)" />
    <path
       style="fill:none;stroke:#000000;stroke-width:1px;stroke-linecap:butt;stroke-linejoin:miter;stroke-opacity:1"
       d="M 258.59905,191.87796 363.65492,124.19774 319.2082,213.09117 418.20315,160.56323 362.64476,124.19774 528.30978,75.710421 392.94934,37.324624"
       id="path3945"
       inkscape:connector-curvature="0"
       transform="translate(0,52.362183)" />
    <path
       style="fill:none;stroke:#000000;stroke-width:1px;stroke-linecap:butt;stroke-linejoin:miter;stroke-opacity:1"
       d="M 418.20315,160.56323 527.29963,76.720574 519.21841,139.35003 z"
       id="path3947"
       inkscape:connector-curvature="0"
       transform="translate(0,52.362183)" />
    <path
       style="fill:none;stroke:#000000;stroke-width:1px;stroke-linecap:butt;stroke-linejoin:miter;stroke-opacity:1"
       d="m 228.29448,298.95413 98.99494,0 -10.10152,-83.84266 89.90358,79.80205 L 417.193,160.56323 495.9849,308.04551 517.1981,141.37034 619.22351,93.893167 527.29963,74.700268 741.45197,39.344929 618.21336,93.893167 l 102.0254,45.456863 20.20306,-98.994948 82.8325,72.730988 139.40106,-74.751293 -223.24372,1.010152"
       id="path3949"
       inkscape:connector-curvature="0"
       transform="translate(0,52.362183)" />
    <path
       style="fill:none;stroke:#000000;stroke-width:1px;stroke-linecap:butt;stroke-linejoin:miter;stroke-opacity:1"
       d="m 522.24887,141.37034 195.96959,-4.04061 106.06602,-25.25382 37.37564,98.99495 84.85281,-33.33503 -122.22845,-64.64976 -47.47717,97.98479 86.87312,0 -18.18275,106.06602 84.85281,-5.05076 -68.69037,-101.01526 -130.30968,141.42136 116.16755,-37.37565 38.38579,103.03556 44.44671,-107.07617 40.40611,137.38075 -84.85282,-31.31473 51.51778,72.73098 34.34519,-39.39594"
       id="path3951"
       inkscape:connector-curvature="0"
       transform="translate(0,52.362183)" />
    <path
       style="fill:none;stroke:#000000;stroke-width:1px;stroke-linecap:butt;stroke-linejoin:miter;stroke-opacity:1"
       d="M 957.62461,39.344929 943.48248,180.76629 926.30988,314.10642"
       id="path3953"
       inkscape:connector-curvature="0"
       transform="translate(0,52.362183)" />
    <path
       style="fill:none;stroke:#000000;stroke-width:1px;stroke-linecap:butt;stroke-linejoin:miter;stroke-opacity:1"
       d="M 780.84792,211.07086 731.35044,352.49222 672.7616,271.68001 z"
       id="path3955"
       inkscape:connector-curvature="0"
       transform="translate(0,52.362183)" />
    <path
       style="fill:none;stroke:#000000;stroke-width:1px;stroke-linecap:butt;stroke-linejoin:miter;stroke-opacity:1"
       d="m 719.22861,136.31957 61.61931,74.75129 -147.48227,-31.31473 z"
       id="path3957"
       inkscape:connector-curvature="0"
       transform="translate(0,52.362183)" />
    <path
       style="fill:none;stroke:#000000;stroke-width:1px;stroke-linecap:butt;stroke-linejoin:miter;stroke-opacity:1"
       d="M 520.22856,145.41095 634.3758,179.75613 528.30978,212.08101 z"
       id="path3959"
       inkscape:connector-curvature="0"
       transform="translate(0,52.362183)" />
    <path
       style="fill:none;stroke:#000000;stroke-width:1px;stroke-linecap:butt;stroke-linejoin:miter;stroke-opacity:1"
       d="m 530.33009,215.11147 -35.35534,90.91373 -89.90358,-9.09137 -78.7919,0 15.15229,110.10663 -117.17769,-106.06602 -19.1929,111.11678 -43.43656,71.72083 -112.126935,45.45686 -9.091373,-73.74113"
       id="path3961"
       inkscape:connector-curvature="0"
       transform="translate(0,52.362183)" />
    <path
       style="fill:none;stroke:#000000;stroke-width:1px;stroke-linecap:butt;stroke-linejoin:miter;stroke-opacity:1"
       d="m 52.527932,531.28922 88.893428,3.03046 18.18274,-45.45687 129.29953,-58.58885 -82.83251,-19.19289 137.38075,-3.03046 -55.55839,22.22335 -34.34519,70.71068 -94.95434,-13.13198 121.21831,109.09647 -26.26397,-96.97464 80.8122,3.03046 -43.43656,-71.72083 121.21831,46.46701 -72.73098,-69.70052 87.88327,-40.4061 -101.01526,-69.70053"
       id="path3963"
       inkscape:connector-curvature="0"
       transform="translate(0,52.362183)" />
    <path
       style="fill:none;stroke:#000000;stroke-width:1px;stroke-linecap:butt;stroke-linejoin:miter;stroke-opacity:1"
       d="m 406.08132,295.92368 20.20305,70.71067 -10.10152,65.65992 -72.73098,-24.24366"
       id="path3965"
       inkscape:connector-curvature="0"
       transform="translate(0,52.362183)" />
    <path
       style="fill:none;stroke:#000000;stroke-width:1px;stroke-linecap:butt;stroke-linejoin:miter;stroke-opacity:1"
       d="m 494.97475,306.0252 49.49747,9.09137 -118.18785,51.51778 113.13709,36.3655 -44.44671,14.14213 4.04061,60.60915 -83.84266,-47.47717 52.52793,125.25892 32.32488,-79.80205 39.39595,-74.75129 4.04061,-88.89342 94.95434,85.86296 35.35534,-126.26907"
       id="path3969"
       inkscape:connector-curvature="0"
       transform="translate(0,52.362183)" />
    <path
       style="fill:none;stroke:#000000;stroke-width:1px;stroke-linecap:butt;stroke-linejoin:miter;stroke-opacity:1"
       d="m 946.51293,951.51268 -114.14723,-40.4061 33.33503,-65.65992 79.80205,104.04571 -8.08122,-118.18785 -72.73098,13.13199 -19.1929,-103.03556 90.91373,90.91373 -2.02031,-108.08632 -87.88327,20.20305 22.22336,-84.85282 66.67007,65.65992 10.10152,-63.63961 -74.75129,-1.01016 -3.03045,-80.8122 74.75128,81.82236 5.05077,-73.74114 -79.80205,-6.06091 -10.10153,-82.83251 86.87312,91.92388 -5.05076,-104.04571 -81.82236,14.14213 27.27412,-82.83251 -151.52288,-64.64976 -93.94419,44.44671 -102.02541,4.04061 50.50763,77.78175 48.48732,-80.8122 37.37565,39.39594 58.58885,-85.86296 32.32488,91.92388 123.23861,-25.25381"
       id="path3971"
       inkscape:connector-curvature="0"
       transform="translate(0,52.362183)" />
    <path
       style="fill:none;stroke:#000000;stroke-width:1px;stroke-linecap:butt;stroke-linejoin:miter;stroke-opacity:1"
       d="m 468.71078,554.52273 64.64976,-24.24366 -37.37564,-53.53809 92.93403,6.06092 84.85282,-43.43656 90.91373,5.05076 93.94418,56.56854 -139.40105,29.29443 43.43656,-85.86297"
       id="path3973"
       inkscape:connector-curvature="0"
       transform="translate(0,52.362183)" />
    <path
       style="fill:none;stroke:#000000;stroke-width:1px;stroke-linecap:butt;stroke-linejoin:miter;stroke-opacity:1"
       d="m 534.3707,531.28922 5.05076,0 50.50763,-50.50763 41.41625,41.41626 41.41626,-81.82236 47.47716,92.93403 -87.88327,-10.10152 z"
       id="path3975"
       inkscape:connector-curvature="0"
       transform="translate(0,52.362183)" />
    <path
       style="fill:none;stroke:#000000;stroke-width:1px;stroke-linecap:butt;stroke-linejoin:miter;stroke-opacity:1"
       d="m 468.71078,556.54303 -59.599,-80.8122 -15.15229,65.65991 75.76144,14.14214 -105.05586,63.63961 31.31473,-75.76144 -60.60915,-41.41625 30.30457,116.16754 66.67007,65.65991 -140.4112,34.34519 72.73098,-101.01525 -85.86297,-22.22336 15.15229,123.23861 -86.87312,-58.58885 73.74114,-63.63961 -113.13709,-4.04061 43.43656,66.67007 -129.299524,-64.64976 15.152288,103.03556 -69.700525,-40.40611 55.55839,-62.62945 85.862971,-1.01016 -26.26397,-57.57869 -59.599001,59.599 L 48.487322,529.26891 23.233509,657.55829 61.619305,765.64461 32.324881,841.40605 52.527932,942.4213 128.28937,938.38069 32.324881,839.38575 138.3909,817.16239 61.619305,765.64461 92.934034,694.93393 208.09142,658.56844 l -11.11167,94.95434 -102.025411,-57.5787 44.446711,121.21831 60.60915,-62.62946 14.14214,79.80205 -75.76144,-18.18274 -10.10153,121.2183 84.85282,1.01015 -77.78175,-122.22845"
       id="path3977"
       inkscape:connector-curvature="0"
       transform="translate(0,52.362183)" />
    <path
       style="fill:none;stroke:#000000;stroke-width:1px;stroke-linecap:butt;stroke-linejoin:miter;stroke-opacity:1"
       d="m 208.09142,937.37054 80.81221,-13.13198 -75.76144,-91.92388 76.77159,-44.44671 -94.95434,-33.33504 98.99495,-38.3858 -5.05076,73.74114 0,134.35029 125.25891,31.31473 -24.24366,-52.52793 -102.0254,21.2132 69.70052,-95.96449 34.34519,76.77159 97.98479,22.22336 -78.79189,28.28427"
       id="path3979"
       inkscape:connector-curvature="0"
       transform="translate(0,52.362183)" />
    <path
       style="fill:none;stroke:#000000;stroke-width:1px;stroke-linecap:butt;stroke-linejoin:miter;stroke-opacity:1"
       d="m 288.90363,790.89842 69.70052,39.39595 -67.68022,-114.14724 128.28938,67.68023 13.13198,-100.00511 28.28427,-55.55839 -93.94419,-10.10152"
       id="path3981"
       inkscape:connector-curvature="0"
       transform="translate(0,52.362183)" />
    <path
       style="fill:none;stroke:#000000;stroke-width:1px;stroke-linecap:butt;stroke-linejoin:miter;stroke-opacity:1"
       d="m 357.594,829.28422 63.63961,-47.47717 -28.28427,120.20815 113.13709,-67.68022 -85.86297,-52.52793 125.25891,-36.36549 -112.12693,-63.63961 131.31983,0 -105.05586,-55.55839 9.09137,-70.71068 63.63961,63.63961 33.33504,64.64976 -20.20306,61.61931 -40.4061,88.89342 -13.13198,95.96449 82.83251,-42.4264 -68.69037,-56.56855 75.76144,-6.06091 -8.08122,60.60915 58.58884,44.44671 104.04572,14.14214 -6.06092,-52.52793 -101.01525,38.38579 88.89342,-103.03556 12.12183,68.69038 75.76144,-101.01526 25.25381,119.198 -101.01525,-23.2335"
       id="path3983"
       inkscape:connector-curvature="0"
       transform="translate(0,52.362183)" />
    <path
       style="fill:none;stroke:#000000;stroke-width:1px;stroke-linecap:butt;stroke-linejoin:miter;stroke-opacity:1"
       d="m 489.92398,928.27917 143.44167,2.0203 -52.52794,-104.04571 133.34014,-1.01015 56.56854,-106.06602 -41.41625,176.7767"
       id="path3985"
       inkscape:connector-curvature="0"
       transform="translate(0,52.362183)" />
    <path
       style="fill:none;stroke:#000000;stroke-width:1px;stroke-linecap:butt;stroke-linejoin:miter;stroke-opacity:1"
       d="m 833.37585,914.13703 -92.93403,29.29443 206.07111,5.05076"
       id="path3987"
       inkscape:connector-curvature="0"
       transform="translate(0,52.362183)" />
    <path
       style="fill:none;stroke:#000000;stroke-width:1px;stroke-linecap:butt;stroke-linejoin:miter;stroke-opacity:1"
       d="m 548.51283,747.46186 32.32488,78.7919 78.7919,-129.29952 z"
       id="path3989"
       inkscape:connector-curvature="0"
       transform="translate(0,52.362183)" />
    <path
       style="fill:none;stroke:#000000;stroke-width:1px;stroke-linecap:butt;stroke-linejoin:miter;stroke-opacity:1"
       d="m 561.64482,683.82225 97.98479,14.14214 -36.36549,-73.74114 z"
       id="path3991"
       inkscape:connector-curvature="0"
       transform="translate(0,52.362183)" />
    <path
       style="fill:none;stroke:#000000;stroke-width:1px;stroke-linecap:butt;stroke-linejoin:miter;stroke-opacity:1"
       d="m 528.30978,617.15219 100.0051,7.07106 -162.63456,-68.69037"
       id="path3993"
       inkscape:connector-curvature="0"
       transform="translate(0,52.362183)" />
    <path
       style="fill:none;stroke:#000000;stroke-width:1px;stroke-linecap:butt;stroke-linejoin:miter;stroke-opacity:1"
       d="m 533.36054,534.31968 94.95434,89.90357 1.01016,-101.01525 77.78174,134.35029 -80.8122,-31.31473"
       id="path3995"
       inkscape:connector-curvature="0"
       transform="translate(0,52.362183)" />
    <path
       style="fill:none;stroke:#000000;stroke-width:1px;stroke-linecap:butt;stroke-linejoin:miter;stroke-opacity:1"
       d="m 658.61946,698.97454 48.48732,-41.41625 65.65992,62.62945 z"
       id="path3997"
       inkscape:connector-curvature="0"
       transform="translate(0,52.362183)" />
    <path
       style="fill:none;stroke:#000000;stroke-width:1px;stroke-linecap:butt;stroke-linejoin:miter;stroke-opacity:1"
       d="m 658.61946,696.95424 57.57869,130.30967"
       id="path3999"
       inkscape:connector-curvature="0"
       transform="translate(0,52.362183)" />
    <path
       style="fill:none;stroke:#000000;stroke-width:1px;stroke-linecap:butt;stroke-linejoin:miter;stroke-opacity:1"
       d="m 770.74639,720.18774 35.35534,73.74114 61.61931,51.51778"
       id="path4001"
       inkscape:connector-curvature="0"
       transform="translate(0,52.362183)" />
    <path
       style="fill:none;stroke:#000000;stroke-width:1px;stroke-linecap:butt;stroke-linejoin:miter;stroke-opacity:1"
       d="m 806.10173,792.91873 0,0 40.4061,-49.49748 -77.78174,-24.24366 100.0051,-57.57869 -72.73098,-59.599 -76.7716,-72.73099 -12.12183,128.28938 87.88327,-52.52794 69.70053,-23.2335 -145.46197,-50.50763"
       id="path4003"
       inkscape:connector-curvature="0"
       transform="translate(0,52.362183)" />
    <path
       style="fill:none;stroke:#000000;stroke-width:1px;stroke-linecap:butt;stroke-linejoin:miter;stroke-opacity:1"
       d="m 497.14286,303.57143 72.14285,-60 -40.71428,-30"
       id="path4005"
       inkscape:connector-curvature="0"
       transform="translate(0,52.362183)" />
    <path
       style="fill:none;stroke:#000000;stroke-width:1px;stroke-linecap:butt;stroke-linejoin:miter;stroke-opacity:1"
       d="m 545,315.71428 22.85714,-72.14285 106.42857,27.85714 z"
       id="path4007"
       inkscape:connector-curvature="0"
       transform="translate(0,52.362183)" />
    <path
       style="fill:none;stroke:#000000;stroke-width:1px;stroke-linecap:butt;stroke-linejoin:miter;stroke-opacity:1"
       d="m 568.57143,245.71428 68.57143,-65 34.28571,90"
       id="path4009"
       inkscape:connector-curvature="0"
       transform="translate(0,52.362183)" />
    <path
       style="fill:none;stroke:#000000;stroke-width:1px;stroke-linecap:butt;stroke-linejoin:miter;stroke-opacity:1"
       d="m 414.28571,430 80,-14.28571 L 425.71429,370"
       id="path4011"
       inkscape:connector-curvature="0"
       transform="translate(0,52.362183)" />
    <path
       style="fill:none;stroke:#000000;stroke-width:1px;stroke-linecap:butt;stroke-linejoin:miter;stroke-opacity:1"
       d="m 278.57143,592.85714 54.28571,-91.42857 74.28572,-24.28571"
       id="path4013"
       inkscape:connector-curvature="0"
       transform="translate(0,52.362183)" />
    <path
       style="fill:none;stroke:#000000;stroke-width:1px;stroke-linecap:butt;stroke-linejoin:miter;stroke-opacity:1"
       d="m 158.57143,487.14286 10,105.71428"
       id="path4015"
       inkscape:connector-curvature="0"
       transform="translate(0,52.362183)" />
    <path
       style="fill:none;stroke:#000000;stroke-width:1px;stroke-linecap:butt;stroke-linejoin:miter;stroke-opacity:1"
       d="M 707.14286,657.14286 870,661.42857"
       id="path4017"
       inkscape:connector-curvature="0"
       transform="translate(0,52.362183)" />
    <path
       style="fill:none;stroke:#000000;stroke-width:1px;stroke-linecap:butt;stroke-linejoin:miter;stroke-opacity:1"
       d="m 460,630 68.57143,-15.71429"
       id="path4019"
       inkscape:connector-curvature="0"
       transform="translate(0,52.362183)" />
    <path
       style="fill:none;stroke:#000000;stroke-width:1px;stroke-linecap:butt;stroke-linejoin:miter;stroke-opacity:1"
       d="m 214.28571,837.14286 -2.85714,100"
       id="path4021"
       inkscape:connector-curvature="0"
       transform="translate(0,52.362183)" />
    <path
       style="fill:none;stroke:#000000;stroke-width:1px;stroke-linecap:butt;stroke-linejoin:miter;stroke-opacity:1"
       d="M 410,477.14286 418.57143,430"
       id="path4023"
       inkscape:connector-curvature="0"
       transform="translate(0,52.362183)" />
  </g>
</svg>
